<mxfile modified="2019-11-04T14:39:04.431Z" host="www.draw.io" agent="Mozilla/5.0 (Windows NT 10.0; Win64; x64) AppleWebKit/537.36 (KHTML, like Gecko) Chrome/78.0.3904.70 Safari/537.36" etag="W3CxM5fi5FolLnNPCsyN" version="12.1.9" type="github" pages="1">
  <diagram id="gn_Bg4XtqljVx7qEozcg" name="Page-1">
    <mxGraphModel dx="1005" dy="551" grid="1" gridSize="10" guides="1" tooltips="1" connect="1" arrows="1" fold="1" page="1" pageScale="1" pageWidth="850" pageHeight="1100" math="0" shadow="0">
      <root>
        <mxCell id="0"/>
        <mxCell id="1" parent="0"/>
        <mxCell id="ci1leKzA5lIn0T6dzKgm-29" value="" style="rounded=0;whiteSpace=wrap;html=1;strokeColor=none;" parent="1" vertex="1">
          <mxGeometry x="30" y="20" width="790" height="470" as="geometry"/>
        </mxCell>
        <mxCell id="j1X4c3lry06MQMG_WzWm-1" value="" style="aspect=fixed;html=1;perimeter=none;align=center;shadow=0;dashed=0;image;fontSize=12;image=img/lib/mscae/EventLog.svg;" parent="1" vertex="1">
          <mxGeometry x="325" y="121" width="30" height="33" as="geometry"/>
        </mxCell>
        <mxCell id="j1X4c3lry06MQMG_WzWm-2" value="Event management System" style="text;html=1;strokeColor=none;fillColor=none;align=center;verticalAlign=middle;whiteSpace=wrap;rounded=0;" parent="1" vertex="1">
          <mxGeometry x="286" y="165" width="84" height="20" as="geometry"/>
        </mxCell>
        <mxCell id="j1X4c3lry06MQMG_WzWm-3" value="&lt;font style=&quot;font-size: 10px&quot;&gt;Monitoring sources&lt;/font&gt;" style="text;html=1;strokeColor=none;fillColor=none;align=center;verticalAlign=middle;whiteSpace=wrap;rounded=0;" parent="1" vertex="1">
          <mxGeometry x="313.5" y="32" width="65" height="16" as="geometry"/>
        </mxCell>
        <mxCell id="j1X4c3lry06MQMG_WzWm-6" style="edgeStyle=none;rounded=0;orthogonalLoop=1;jettySize=auto;html=1;exitX=0.495;exitY=1;exitDx=0;exitDy=0;exitPerimeter=0;entryX=0.489;entryY=-0.08;entryDx=0;entryDy=0;entryPerimeter=0;" parent="1" source="j1X4c3lry06MQMG_WzWm-4" target="j1X4c3lry06MQMG_WzWm-1" edge="1">
          <mxGeometry relative="1" as="geometry"/>
        </mxCell>
        <mxCell id="j1X4c3lry06MQMG_WzWm-4" value="" style="pointerEvents=1;shadow=0;dashed=0;html=1;strokeColor=none;labelPosition=center;verticalLabelPosition=bottom;verticalAlign=top;align=center;shape=mxgraph.azure.health_monitoring;fillColor=#7D7D7D;" parent="1" vertex="1">
          <mxGeometry x="327" y="57" width="27" height="20" as="geometry"/>
        </mxCell>
        <mxCell id="j1X4c3lry06MQMG_WzWm-7" value="" style="rounded=0;whiteSpace=wrap;html=1;" parent="1" vertex="1">
          <mxGeometry x="41" y="54" width="224" height="427" as="geometry"/>
        </mxCell>
        <mxCell id="j1X4c3lry06MQMG_WzWm-8" value="" style="rounded=0;whiteSpace=wrap;html=1;" parent="1" vertex="1">
          <mxGeometry x="55" y="63.5" width="190" height="205" as="geometry"/>
        </mxCell>
        <mxCell id="j1X4c3lry06MQMG_WzWm-9" value="&lt;font style=&quot;font-size: 15px&quot;&gt;UAMS&lt;/font&gt;" style="text;html=1;strokeColor=none;fillColor=none;align=center;verticalAlign=middle;whiteSpace=wrap;rounded=0;fontStyle=1" parent="1" vertex="1">
          <mxGeometry x="66.5" y="63.5" width="160" height="20" as="geometry"/>
        </mxCell>
        <mxCell id="KyXaF-SN7KRc0o7MAkgT-4" style="edgeStyle=none;rounded=0;orthogonalLoop=1;jettySize=auto;html=1;exitX=0;exitY=0.5;exitDx=0;exitDy=0;entryX=0.25;entryY=0;entryDx=0;entryDy=0;fontSize=10;" parent="1" source="j1X4c3lry06MQMG_WzWm-11" target="j1X4c3lry06MQMG_WzWm-16" edge="1">
          <mxGeometry relative="1" as="geometry"/>
        </mxCell>
        <mxCell id="j1X4c3lry06MQMG_WzWm-11" value="" style="shape=image;verticalLabelPosition=bottom;labelBackgroundColor=#ffffff;verticalAlign=top;aspect=fixed;imageAspect=0;image=data:image/svg+xml,PHN2ZyB4bWxuczpjYz0iaHR0cDovL2NyZWF0aXZlY29tbW9ucy5vcmcvbnMjIiB4bWxuczpkYz0iaHR0cDovL3B1cmwub3JnL2RjL2VsZW1lbnRzLzEuMS8iIHhtbG5zOmlua3NjYXBlPSJodHRwOi8vd3d3Lmlua3NjYXBlLm9yZy9uYW1lc3BhY2VzL2lua3NjYXBlIiB4bWxuczpyZGY9Imh0dHA6Ly93d3cudzMub3JnLzE5OTkvMDIvMjItcmRmLXN5bnRheC1ucyMiIHhtbG5zOnNvZGlwb2RpPSJodHRwOi8vc29kaXBvZGkuc291cmNlZm9yZ2UubmV0L0RURC9zb2RpcG9kaS0wLmR0ZCIgeG1sbnM6c3ZnPSJodHRwOi8vd3d3LnczLm9yZy8yMDAwL3N2ZyIgeG1sbnM9Imh0dHA6Ly93d3cudzMub3JnLzIwMDAvc3ZnIiB4bWxuczp4bGluaz0iaHR0cDovL3d3dy53My5vcmcvMTk5OS94bGluayIgdmVyc2lvbj0iMS4xIiBpZD0ic3ZnMTUwMTk3IiBpbmtzY2FwZTp2ZXJzaW9uPSIwLjkyLjMgKDI0MDU1NDYsIDIwMTgtMDMtMTEpIiBzb2RpcG9kaTpkb2NuYW1lPSJkZXZlbG9wZXJfMS5zdmciIHg9IjBweCIgeT0iMHB4IiB2aWV3Qm94PSIwIDAgMTM0LjQgODkuNzkiIHN0eWxlPSJlbmFibGUtYmFja2dyb3VuZDpuZXcgMCAwIDEzNC40IDg5Ljc5OyIgeG1sOnNwYWNlPSJwcmVzZXJ2ZSI+JiN4YTs8c29kaXBvZGk6bmFtZWR2aWV3IGJvcmRlcmNvbG9yPSIjNjY2NjY2IiBib3JkZXJvcGFjaXR5PSIxIiBmaXQtbWFyZ2luLWJvdHRvbT0iMCIgZml0LW1hcmdpbi1sZWZ0PSIwIiBmaXQtbWFyZ2luLXJpZ2h0PSIwIiBmaXQtbWFyZ2luLXRvcD0iMCIgZ3JpZHRvbGVyYW5jZT0iMTAiIGd1aWRldG9sZXJhbmNlPSIxMCIgaWQ9Im5hbWVkdmlldzE1MDE5OSIgaW5rc2NhcGU6Y3VycmVudC1sYXllcj0ic3ZnMTUwMTk3IiBpbmtzY2FwZTpjeD0iODkuNTk4MzE2IiBpbmtzY2FwZTpjeT0iNTkuMzI5NTMzIiBpbmtzY2FwZTpwYWdlb3BhY2l0eT0iMCIgaW5rc2NhcGU6cGFnZXNoYWRvdz0iMiIgaW5rc2NhcGU6d2luZG93LWhlaWdodD0iMTAxNyIgaW5rc2NhcGU6d2luZG93LW1heGltaXplZD0iMSIgaW5rc2NhcGU6d2luZG93LXdpZHRoPSIxOTIwIiBpbmtzY2FwZTp3aW5kb3cteD0iLTgiIGlua3NjYXBlOndpbmRvdy15PSItOCIgaW5rc2NhcGU6em9vbT0iNy4wODk5NTA1IiBvYmplY3R0b2xlcmFuY2U9IjEwIiBwYWdlY29sb3I9IiNmZmZmZmYiIHNob3dncmlkPSJmYWxzZSI+JiN4YTsJPC9zb2RpcG9kaTpuYW1lZHZpZXc+JiN4YTs8ZyBpZD0iZzE1MDE5NSIgdHJhbnNmb3JtPSJ0cmFuc2xhdGUoLTEuMzYxNDY5MiwtMC41NjgzKSI+JiN4YTsJPHRpdGxlIGlkPSJ0aXRsZTE1MDAyMCI+UGFnZS0xPC90aXRsZT4mI3hhOwk8ZyBpZD0iZ3JvdXAzODctMSIgdHJhbnNmb3JtPSJ0cmFuc2xhdGUoMS4yNTg1NiwtMS4zNikiPiYjeGE7CQk8dGl0bGUgaWQ9InRpdGxlMTUwMDIyIj5EZXZlbG9wZXIgIzE8L3RpdGxlPiYjeGE7CQk8ZyBpZD0ic2hhcGUzODgtMiIgdHJhbnNmb3JtPSJtYXRyaXgoMSwwLDAsLTEsNjEuOTc3NywxMzEuNjkyKSI+JiN4YTsJCQk8dGl0bGUgaWQ9InRpdGxlMTUwMDI0Ij5wYXRoMjA2LTA8L3RpdGxlPiYjeGE7CQkJPHBhdGggaWQ9InBhdGgxNTAwMjYiIGlua3NjYXBlOmNvbm5lY3Rvci1jdXJ2YXR1cmU9IjAiIHN0eWxlPSJmaWxsOiMwMDcxQkM7IiBkPSJNNTIuMiw1MS4zOWMwLTIuNi0zLjIyLTQuNy03LjE5LTQuN0g3LjE5ICAgICBjLTMuOTcsMC03LjE5LDIuMS03LjE5LDQuN3YzNS42MmMwLDIuNiwzLjIyLDQuNyw3LjE5LDQuN2gzNy44MmMzLjk3LDAsNy4xOS0yLjEsNy4xOS00LjdMNTIuMiw1MS4zOXoiLz4mI3hhOwkJPC9nPiYjeGE7CQk8ZyBpZD0ic2hhcGUzODktNCIgdHJhbnNmb3JtPSJ0cmFuc2xhdGUoODMuMjY2MywtMzguMTQxMykiPiYjeGE7CQkJPHRpdGxlIGlkPSJ0aXRsZTE1MDAyOSI+cGF0aDIxMC00PC90aXRsZT4mI3hhOwkJCTxwYXRoIGlkPSJwYXRoMTUwMDMxIiBpbmtzY2FwZTpjb25uZWN0b3ItY3VydmF0dXJlPSIwIiBzdHlsZT0iZmlsbDojRTVFNUU1OyIgZD0iTTkuNjIsOTEuNzFIMHYtNS45Nmg5LjYyVjkxLjcxeiIvPiYjeGE7CQk8L2c+JiN4YTsJCTxnIGlkPSJzaGFwZTM5MC02IiB0cmFuc2Zvcm09Im1hdHJpeCgxLDAsMCwtMSw4Ny44Njg0LDE0MS42KSI+JiN4YTsJCQk8dGl0bGUgaWQ9InRpdGxlMTUwMDM0Ij5wYXRoMjE0LTk8L3RpdGxlPiYjeGE7CQkJPHBhdGggaWQ9InBhdGgxNTAwMzYiIGlua3NjYXBlOmNvbm5lY3Rvci1jdXJ2YXR1cmU9IjAiIHN0eWxlPSJmaWxsOm5vbmU7IiBkPSJNMCw5MS43MXYtMi42OFY5MS43MXoiLz4mI3hhOwkJCSYjeGE7CQkJCTxwYXRoIGlkPSJwYXRoMTUwMDM4IiBpbmtzY2FwZTpjb25uZWN0b3ItY3VydmF0dXJlPSIwIiBzdHlsZT0iZmlsbDpub25lO3N0cm9rZTojQjJCMkIyO3N0cm9rZS13aWR0aDoyLjA2MDY7c3Ryb2tlLW1pdGVybGltaXQ6MzsiIGQ9IiAgICAgTTAsOTEuNzF2LTIuNjgiLz4mI3hhOwkJPC9nPiYjeGE7CQk8ZyBpZD0ic2hhcGUzOTEtOSIgdHJhbnNmb3JtPSJtYXRyaXgoMSwwLDAsLTEsNDkuMTA0NywxMzcuMzIxKSI+JiN4YTsJCQk8dGl0bGUgaWQ9InRpdGxlMTUwMDQxIj5wYXRoMjE4LTI8L3RpdGxlPiYjeGE7CQkJPHBhdGggaWQ9InBhdGgxNTAwNDMiIGlua3NjYXBlOmNvbm5lY3Rvci1jdXJ2YXR1cmU9IjAiIHN0eWxlPSJmaWxsOiMzOUI1NEE7IiBkPSJNNzMuNCw2MS4wNGMtNC4xMiw4LjI1LTEyLjksMjYuNDgtMTQuNTcsMjcuODggICAgIGMtMS42NiwxLjQtMTAuNDQsMi43OS0xNS40NiwyLjc5YzAsMCwwLjk0LTYuMTgtNC42MS02LjE4Yy01LjU0LDAtNC42LDYuMTgtNC42LDYuMThjLTUuMDIsMC0xMy44LTEuMzktMTUuNDYtMi43OSAgICAgYy0xLjY3LTEuNC0xMC40NS0xOS42My0xNC41OC0yNy44OEMwLDUyLjc5LDUuMjYsNTIuMTksNS4yNiw1Mi4xOWgxNC40M3Y2LjkyYy0yLjEzLDAuNzMtNi43MiwxLjYtNi43MiwxLjYgICAgIGMxLjQsMy4zOSw5LjUyLDE4Ljg5LDkuNTIsMTguODlsMC44Ni0yNi42OGgxNS40MWgxNS40MWwwLjg3LDI2LjY4YzAsMCw4LjEyLTE1LjUsOS41MS0xOC44OWMwLDAtNC41OS0wLjg3LTYuNzItMS42di02LjkyICAgICBoMTQuNDRDNzIuMjcsNTIuMTksNzcuNTMsNTIuNzksNzMuNCw2MS4wNHoiLz4mI3hhOwkJPC9nPiYjeGE7CQk8ZyBpZD0ic2hhcGUzOTItMTEiIHRyYW5zZm9ybT0ibWF0cml4KDEsMCwwLC0xLDgzLjI2NjMsMTI4LjA5MykiPiYjeGE7CQkJPHRpdGxlIGlkPSJ0aXRsZTE1MDA0NiI+cGF0aDIyMi03PC90aXRsZT4mI3hhOwkJCTxwYXRoIGlkPSJwYXRoMTUwMDQ4IiBpbmtzY2FwZTpjb25uZWN0b3ItY3VydmF0dXJlPSIwIiBzdHlsZT0iZmlsbDojRkZEQUEyOyIgZD0iTTkuMiw4MC41NmMwLDAtMC42NS0yLjM1LTQuNi0yLjM1ICAgICBTMCw4MC41NiwwLDgwLjU2djExLjE1aDkuMlY4MC41NnoiLz4mI3hhOwkJPC9nPiYjeGE7CQk8ZyBpZD0ic2hhcGUzOTMtMTMiIHRyYW5zZm9ybT0ibWF0cml4KDEsMCwwLC0xLDc1LjExOTgsMTA1LjIwOCkiPiYjeGE7CQkJPHRpdGxlIGlkPSJ0aXRsZTE1MDA1MSI+cGF0aDIyNi05PC90aXRsZT4mI3hhOwkJCTxwYXRoIGlkPSJwYXRoMTUwMDUzIiBpbmtzY2FwZTpjb25uZWN0b3ItY3VydmF0dXJlPSIwIiBzdHlsZT0iZmlsbDojRkZEQUEyOyIgZD0iTTEyLjc1LDg4LjI4Yy04LjgxLDMuNDMtMTIuNzUsMC0xMi43NSwwICAgICBzMC42OC0xMi4xMSwxLTE0LjU2YzAuNzUtNS44Miw4LjMxLTkuNjksMTEuNzUtOS42OXMxMSwzLjg3LDExLjc1LDkuNjljMC4zMSwyLjQ1LDEsMTQuNTYsMSwxNC41NlMyMS41Niw5MS43MSwxMi43NSw4OC4yOHoiLz4mI3hhOwkJPC9nPiYjeGE7CQk8ZyBpZD0ic2hhcGUzOTQtMTUiIHRyYW5zZm9ybT0ibWF0cml4KDEsMCwwLC0xLDcwLjc0NTEsMTEzLjE5MSkiPiYjeGE7CQkJPHRpdGxlIGlkPSJ0aXRsZTE1MDA1NiI+cGF0aDIzMC01PC90aXRsZT4mI3hhOwkJCTxwYXRoIGlkPSJwYXRoMTUwMDU4IiBpbmtzY2FwZTpjb25uZWN0b3ItY3VydmF0dXJlPSIwIiBzdHlsZT0iZmlsbDojRjdEMTk3OyIgZD0iTTQuNzgsODkuNWMwLDAtMi4yNCwyLjIxLTMuMDMsMC44OSAgICAgQzAsODcuNDUsMy4wNiw4Ni4zNSwzLjI3LDgzLjU3YzAuMTQtMS45OCwxLjQ4LTEuOTcsMi4wMS0wLjk4QzUuODEsODMuNTcsNS41OSw4OC44Myw0Ljc4LDg5LjV6Ii8+JiN4YTsJCTwvZz4mI3hhOwkJPGcgaWQ9InNoYXBlMzk1LTE3IiB0cmFuc2Zvcm09Im1hdHJpeCgxLDAsMCwtMSw5OS4xNzk1LDExMy4xOTEpIj4mI3hhOwkJCTx0aXRsZSBpZD0idGl0bGUxNTAwNjEiPnBhdGgyMzQtMDwvdGl0bGU+JiN4YTsJCQk8cGF0aCBpZD0icGF0aDE1MDA2MyIgaW5rc2NhcGU6Y29ubmVjdG9yLWN1cnZhdHVyZT0iMCIgc3R5bGU9ImZpbGw6I0Y3RDE5NzsiIGQ9Ik0xLjAzLDg5LjVjMCwwLDIuMjQsMi4yMSwzLjAzLDAuODkgICAgIGMxLjc1LTIuOTQtMS4zMS00LjA0LTEuNTEtNi44MmMtMC4xNS0xLjk4LTEuNDktMS45Ny0yLjAyLTAuOThDMCw4My41NywwLjIyLDg4LjgzLDEuMDMsODkuNXoiLz4mI3hhOwkJPC9nPiYjeGE7CQk8ZyBpZD0ic2hhcGUzOTYtMTkiIHRyYW5zZm9ybT0ibWF0cml4KDEsMCwwLC0xLDc0Ljg3NzcsMTE5LjE4OCkiPiYjeGE7CQkJPHRpdGxlIGlkPSJ0aXRsZTE1MDA2NiI+cGF0aDIzOC04PC90aXRsZT4mI3hhOwkJCTxwYXRoIGlkPSJwYXRoMTUwMDY4IiBpbmtzY2FwZTpjb25uZWN0b3ItY3VydmF0dXJlPSIwIiBkPSJNMTIuOTksODIuMzhjLTIuNjQsMC00LDAuNzQtNCwxLjg0czEuNjEsMC40NSw0LDAuNDVzNCwwLjY1LDQtMC40NSAgICAgUzE1LjYzLDgyLjM4LDEyLjk5LDgyLjM4eiBNMjUuMjcsOTEuNzFoLTAuNDljMCwwLDAuNjMtNS4xNC0xMS43OS01LjE0UzEuMjEsOTEuNzEsMS4yMSw5MS43MWgtMC41YzAsMC0wLjcxLTUuODEsMS42NC05LjEzICAgICBjMy4yNS00LjU3LDEwLjY0LTQuNTcsMTAuNjQtNC41N3M3LjM5LDAsMTAuNjQsNC41N0MyNS45OCw4NS45LDI1LjI3LDkxLjcxLDI1LjI3LDkxLjcxeiIvPiYjeGE7CQk8L2c+JiN4YTsJCTxnIGlkPSJzaGFwZTM5Ny0yMSIgdHJhbnNmb3JtPSJtYXRyaXgoMSwwLDAsLTEsNjcuMzUxMSw5My42MzgzKSI+JiN4YTsJCQk8dGl0bGUgaWQ9InRpdGxlMTUwMDcxIj5wYXRoMjQyLTE8L3RpdGxlPiYjeGE7CQkJPHBhdGggaWQ9InBhdGgxNTAwNzMiIGlua3NjYXBlOmNvbm5lY3Rvci1jdXJ2YXR1cmU9IjAiIGQ9Ik0zMi44LDY2LjE3YzAsMC0wLjUyLDMuNjcsMS4yNSw0LjdjMCwwLDMuMTMsMTAuNDIsMC40MywxMy4xNiAgICAgYy0yLjY5LDIuNzQtNi41NCw0LjQ5LTkuNzgsNC44NHMtNi44NCwxLTguNTMsMi44NGMwLDAsMC44NS0yLjM0LDEuOTktMi40OWMwLDAtNy41My0xLjM1LTEyLjM3LDAuM2MwLDAsMS4zNS0zLjY0LDQuMzktNC4yOSAgICAgYzAsMC02LjM5LTEuNS0xMC4xOC0wLjI1YzAsMCwzLjAxLTYuMTYsNy43Ny04LjI3YzAsMCwzLjYxLDEuNjMsNS4zNSwwLjkzYzAsMCwwLjM1LTEtMS4xOS0xLjY0YzAsMCw0LjI0LDAuMTUsNi4wOCwxLjA0ICAgICBjMCwwLDAuMTUtMC42OSwwLjA1LTEuMzRjMCwwLDQuODQsMS4wNyw3LjM0LDIuMzVjMCwwLDIuMDktMS41NiwxLjQtMi4yYzAsMCw1LjA0LTAuMiw2LjEsMC42OSAgICAgQzMyLjksNzYuNTQsMzIuMzIsNjcuNTEsMzIuOCw2Ni4xN3oiLz4mI3hhOwkJPC9nPiYjeGE7CQk8ZyBpZD0ic2hhcGUzOTgtMjMiIHRyYW5zZm9ybT0ibWF0cml4KDEsMCwwLC0xLDcyLjM5MDksMTA2LjQxMykiPiYjeGE7CQkJPHRpdGxlIGlkPSJ0aXRsZTE1MDA3NiI+cGF0aDI0NjwvdGl0bGU+JiN4YTsJCQk8cGF0aCBpZD0icGF0aDE1MDA3OCIgaW5rc2NhcGU6Y29ubmVjdG9yLWN1cnZhdHVyZT0iMCIgZD0iTTMuMTksNzguOTRjMCwwLDAuMTksNC4xMS0yLjAzLDUuMDVjMCwwLTEuMTYsNi4zMy0wLjU2LDcuNzIgICAgIGwyLjQ5LTIuMDdjMCwwLDAuNjktOC45NSwwLjM1LTEwLjdMMy4xOSw3OC45NHoiLz4mI3hhOwkJPC9nPiYjeGE7CQk8ZyBpZD0ic2hhcGUzOTktMjUiIHRyYW5zZm9ybT0ibWF0cml4KDEsMCwwLC0xLDgxLjU0MjEsMTM3LjMyMSkiPiYjeGE7CQkJPHRpdGxlIGlkPSJ0aXRsZTE1MDA4MSI+cGF0aDI1MDwvdGl0bGU+JiN4YTsJCQk8cGF0aCBpZD0icGF0aDE1MDA4MyIgaW5rc2NhcGU6Y29ubmVjdG9yLWN1cnZhdHVyZT0iMCIgc3R5bGU9ImZpbGw6I0YxRjFGMTsiIGQ9Ik02LjMzLDg3LjQzYzAsMC0zLjg1LTAuMDEtNS4wNS0yLjY4ICAgICBjMCwwLTEuMjgsNC44OSwwLjQ0LDYuOTZDMS43Miw5MS43MSwyLjE5LDg3Ljc3LDYuMzMsODcuNDN6Ii8+JiN4YTsJCTwvZz4mI3hhOwkJPGcgaWQ9InNoYXBlNDAwLTI3IiB0cmFuc2Zvcm09Im1hdHJpeCgxLDAsMCwtMSw4Ny44Njg0LDEzNy4zMjEpIj4mI3hhOwkJCTx0aXRsZSBpZD0idGl0bGUxNTAwODYiPnBhdGgyNTQ8L3RpdGxlPiYjeGE7CQkJPHBhdGggaWQ9InBhdGgxNTAwODgiIGlua3NjYXBlOmNvbm5lY3Rvci1jdXJ2YXR1cmU9IjAiIHN0eWxlPSJmaWxsOiNGMUYxRjE7IiBkPSJNMCw4Ny40M2MwLDAsMy44NS0wLjAxLDUuMDUtMi42OCAgICAgYzAsMCwxLjI4LDQuODktMC40NSw2Ljk2QzQuNiw5MS43MSw0LjEzLDg3Ljc3LDAsODcuNDN6Ii8+JiN4YTsJCTwvZz4mI3hhOwkJPGcgaWQ9InNoYXBlNDAxLTI5IiB0cmFuc2Zvcm09Im1hdHJpeCgxLDAsMCwtMSw2Ni4wMDM5LDE1NC43OTEpIj4mI3hhOwkJCTx0aXRsZSBpZD0idGl0bGUxNTAwOTEiPnBhdGgyOTg8L3RpdGxlPiYjeGE7CQkJPHBhdGggaWQ9InBhdGgxNTAwOTMiIGlua3NjYXBlOmNvbm5lY3Rvci1jdXJ2YXR1cmU9IjAiIHN0eWxlPSJmaWxsOiNDQkNCQ0I7IiBkPSJNNDMuMzMsOTAuOTJjLTAuNCwwLjY2LTEuNzMsMC43OS0xLjczLDAuNzkgICAgIEgyMS44NkgyLjEzYzAsMC0xLjMzLTAuMTMtMS43My0wLjc5QzAsOTAuMjUsMC44LDY5LjA5LDAuOCw2OS4wOWgyMS4wNmgyMS4wN0M0Mi45Myw2OS4wOSw0My43Myw5MC4yNSw0My4zMyw5MC45MnoiLz4mI3hhOwkJPC9nPiYjeGE7CQk8ZyBpZD0ic2hhcGU0MDItMzEiIHRyYW5zZm9ybT0ibWF0cml4KDEsMCwwLC0xLDY2LjAwMzksMTU1LjE4MikiPiYjeGE7CQkJPHRpdGxlIGlkPSJ0aXRsZTE1MDA5NiI+cGF0aDMwMjwvdGl0bGU+JiN4YTsJCQk8cGF0aCBpZD0icGF0aDE1MDA5OCIgaW5rc2NhcGU6Y29ubmVjdG9yLWN1cnZhdHVyZT0iMCIgc3R5bGU9ImZpbGw6I0U1RTVFNTsiIGQ9Ik00My4zMyw5MC45MmMtMC40LDAuNjYtMS43MywwLjc5LTEuNzMsMC43OSAgICAgSDIxLjg2SDIuMTNjMCwwLTEuMzMtMC4xMy0xLjczLTAuNzlDMCw5MC4yNSwwLjgsNjkuMDksMC44LDY5LjA5aDIxLjA2aDIxLjA3QzQyLjkzLDY5LjA5LDQzLjczLDkwLjI1LDQzLjMzLDkwLjkyeiIvPiYjeGE7CQk8L2c+JiN4YTsJCTxnIGlkPSJncm91cDQwMy0zMyIgdHJhbnNmb3JtPSJ0cmFuc2xhdGUoODMuODE5MSwtMTIuODg5KSI+JiN4YTsJCQk8dGl0bGUgaWQ9InRpdGxlMTUwMTAxIj5NaWNyb3NvZnQ8L3RpdGxlPiYjeGE7CQkJPGcgaWQ9InNoYXBlNDA0LTM0IiB0cmFuc2Zvcm09InRyYW5zbGF0ZSgwLC00LjI2NTMpIj4mI3hhOwkJCQk8dGl0bGUgaWQ9InRpdGxlMTUwMTAzIj5IVFRQIEFQSSBBcHA8L3RpdGxlPiYjeGE7CQkJCTxwYXRoIGlkPSJwYXRoMTUwMTA1IiBpbmtzY2FwZTpjb25uZWN0b3ItY3VydmF0dXJlPSIwIiBzdHlsZT0iZmlsbDojRjI1MDIyOyIgZD0iTTAsODcuODl2My44MmgzLjg0di0zLjgySDB6Ii8+JiN4YTsJCQk8L2c+JiN4YTsJCQk8ZyBpZD0ic2hhcGU0MDUtMzYiIHRyYW5zZm9ybT0idHJhbnNsYXRlKDQuMjYyOCwtNC4yNjUzKSI+JiN4YTsJCQkJPHRpdGxlIGlkPSJ0aXRsZTE1MDEwOCI+SFRUUCBBUEkgQXBwLjE0NjE8L3RpdGxlPiYjeGE7CQkJCTxwYXRoIGlkPSJwYXRoMTUwMTEwIiBpbmtzY2FwZTpjb25uZWN0b3ItY3VydmF0dXJlPSIwIiBzdHlsZT0iZmlsbDojN0ZCQTAwOyIgZD0iTTAsODcuODl2My44MmgzLjg0di0zLjgySDB6Ii8+JiN4YTsJCQk8L2c+JiN4YTsJCQk8ZyBpZD0ic2hhcGU0MDYtMzgiIHRyYW5zZm9ybT0idHJhbnNsYXRlKDQuMjYyOCkiPiYjeGE7CQkJCTx0aXRsZSBpZD0idGl0bGUxNTAxMTMiPkhUVFAgQVBJIEFwcC4xNDYyPC90aXRsZT4mI3hhOwkJCQk8cGF0aCBpZD0icGF0aDE1MDExNSIgaW5rc2NhcGU6Y29ubmVjdG9yLWN1cnZhdHVyZT0iMCIgc3R5bGU9ImZpbGw6I0ZGQjkwMDsiIGQ9Ik0wLDg3Ljg5djMuODJoMy44NHYtMy44MkgweiIvPiYjeGE7CQkJPC9nPiYjeGE7CQkJPGcgaWQ9InNoYXBlNDA3LTQwIj4mI3hhOwkJCQk8dGl0bGUgaWQ9InRpdGxlMTUwMTE4Ij5IVFRQIEFQSSBBcHAuMTQ2MzwvdGl0bGU+JiN4YTsJCQkJPHBhdGggaWQ9InBhdGgxNTAxMjAiIGlua3NjYXBlOmNvbm5lY3Rvci1jdXJ2YXR1cmU9IjAiIHN0eWxlPSJmaWxsOiMwMEE0RUY7IiBkPSJNMCw4Ny44OXYzLjgyaDMuODR2LTMuODJIMHoiLz4mI3hhOwkJCTwvZz4mI3hhOwkJPC9nPiYjeGE7CQk8ZyBpZD0ic2hhcGU0MDgtNDIiIHRyYW5zZm9ybT0idHJhbnNsYXRlKDc1LjExOTgsLTUxLjU2NzIpIj4mI3hhOwkJCTx0aXRsZSBpZD0idGl0bGUxNTAxMjQiPnBhdGg3OTU8L3RpdGxlPiYjeGE7CQkJPHBhdGggaWQ9InBhdGgxNTAxMjYiIGlua3NjYXBlOmNvbm5lY3Rvci1jdXJ2YXR1cmU9IjAiIGQ9Ik0xMy43Niw5MC40OWgtMi4wM2wwLjUxLDAuOTRsMC41LDAuMjd2MC4wMWgwLjAxbDAsMFY5MS43bDAuNS0wLjI3ICAgICBMMTMuNzYsOTAuNDl6IE0yNS41LDczLjY1bC0xLjc5LDAuMjNsLTAuMi0wLjA3bC0yLjQ0LTAuNDhoLTQuMDNsLTMuNzIsMC42aC0xLjE4bC0zLjcyLTAuNkg0LjRsLTIuNDMsMC40OGwtMC4xOSwwLjA3TDAsNzMuNjUgICAgIHYwLjcybDAuOTYsMC4xM2wwLjczLDMuMzhsMC42MywwLjYzbDEuOTIsMC40N2gzLjI1bDIuODQtMC42NGwxLjQ3LTIuMzVsMC41OS0wLjY3aDAuNjdsMC41OSwwLjY3bDEuNDcsMi4zNWwyLjg0LDAuNjRoMy4yNSAgICAgbDEuOTItMC40N2wwLjYzLTAuNjNsMC43My0zLjM4bDAuOTYtMC4xM0wyNS41LDczLjY1eiBNMTAuNzgsNzUuNDdsLTAuOCwyLjI2bC0yLjY3LDAuNThINC4xOGwtMS40Mi0wLjM3bC0wLjUyLTAuNDVsLTAuMzktMi41ICAgICBsMC40My0wLjUybDIuMDktMC40aDMuOTlsMi40NCwwLjM3TDEwLjc4LDc1LjQ3eiBNMjMuMjUsNzcuNDlsLTAuNTIsMC40NWwtMS40MiwwLjM2aC0zLjE0bC0yLjY2LTAuNTdsLTAuODEtMi4yNXYtMS4wNSAgICAgbDIuNDQtMC4zN2gzLjk4bDIuMDksMC40bDAuNDMsMC41MkwyMy4yNSw3Ny40OXoiLz4mI3hhOwkJPC9nPiYjeGE7CQk8ZyBpZD0ic2hhcGU0MDktNDQiIHRyYW5zZm9ybT0idHJhbnNsYXRlKDAuMDY3NjI4NywtNy4wMjU3MSkiPiYjeGE7CQkJPHRpdGxlIGlkPSJ0aXRsZTE1MDEyOSI+U2hlZXQuNDA5PC90aXRsZT4mI3hhOwkJCTxwYXRoIGlkPSJwYXRoMTUwMTMxIiBpbmtzY2FwZTpjb25uZWN0b3ItY3VydmF0dXJlPSIwIiBzdHlsZT0iZmlsbDojMDA5MjQ1OyIgZD0iTTI4LjY3LDkxLjcxYy0wLjI3LDAtMC41NC0wLjEzLTAuNzQtMC4zMyAgICAgTDAuNDEsNjMuODVjLTAuNDEtMC40LTAuNDEtMS4wOCwwLTEuNDljMC40LTAuNCwxLjA4LTAuNCwxLjQ4LDBsMjcuNTMsMjcuNTNjMC40LDAuNCwwLjQsMS4wOCwwLDEuNDkgICAgIEMyOS4xNSw5MS41MSwyOC44OCw5MS43MSwyOC42Nyw5MS43MXoiLz4mI3hhOwkJPC9nPiYjeGE7CQk8ZyBpZD0ic2hhcGU0MTAtNDYiIHRyYW5zZm9ybT0idHJhbnNsYXRlKDMuOTIyNDYsLTExLjAxNTgpIj4mI3hhOwkJCTx0aXRsZSBpZD0idGl0bGUxNTAxMzQiPlNoZWV0LjQxMDwvdGl0bGU+JiN4YTsJCQk8cGF0aCBpZD0icGF0aDE1MDEzNiIgaW5rc2NhcGU6Y29ubmVjdG9yLWN1cnZhdHVyZT0iMCIgc3R5bGU9ImZpbGw6IzAwOTI0NTsiIGQ9Ik0yOC43NCw5MS43MWMtMC4yNywwLTAuNTQtMC4xMy0wLjc0LTAuMzMgICAgIEwwLjQxLDYzLjkyQzAsNjMuNTEsMCw2Mi44NCwwLjQxLDYyLjQzYzAuNC0wLjQsMS4wOC0wLjQsMS40OCwwbDI3LjYsMjcuNTNjMC40LDAuNCwwLjQsMS4wOCwwLDEuNDggICAgIEMyOS4yOCw5MS42NSwyOS4wMSw5MS43MSwyOC43NCw5MS43MXoiLz4mI3hhOwkJPC9nPiYjeGE7CQk8ZyBpZD0ic2hhcGU0MTEtNDgiIHRyYW5zZm9ybT0idHJhbnNsYXRlKDAsLTM0LjY4NTgpIj4mI3hhOwkJCTx0aXRsZSBpZD0idGl0bGUxNTAxMzkiPlNoZWV0LjQxMTwvdGl0bGU+JiN4YTsJCQk8cGF0aCBpZD0icGF0aDE1MDE0MSIgaW5rc2NhcGU6Y29ubmVjdG9yLWN1cnZhdHVyZT0iMCIgc3R5bGU9ImZpbGw6IzAwOTI0NTsiIGQ9Ik0xLjE1LDkxLjcxYy0wLjI3LDAtMC41NC0wLjEzLTAuNzQtMC4zMyAgICAgQzAsOTAuOTcsMCw5MC4yOSwwLjQxLDg5Ljg5TDI4LDYyLjQzYzAuNC0wLjQsMS4wOC0wLjQsMS40OSwwYzAuNCwwLjQxLDAuNCwxLjA4LDAsMS40OUwxLjk2LDkxLjQ0ICAgICBDMS42OSw5MS43MSwxLjQyLDkxLjcxLDEuMTUsOTEuNzF6Ii8+JiN4YTsJCTwvZz4mI3hhOwkJPGcgaWQ9InNoYXBlNDEyLTUwIiB0cmFuc2Zvcm09InRyYW5zbGF0ZSgzLjkyMjQ2LC0zMC42MjgxKSI+JiN4YTsJCQk8dGl0bGUgaWQ9InRpdGxlMTUwMTQ0Ij5TaGVldC40MTI8L3RpdGxlPiYjeGE7CQkJPHBhdGggaWQ9InBhdGgxNTAxNDYiIGlua3NjYXBlOmNvbm5lY3Rvci1jdXJ2YXR1cmU9IjAiIHN0eWxlPSJmaWxsOiMwMDkyNDU7IiBkPSJNMS4xNSw5MS43MWMtMC4yNywwLTAuNTQtMC4xMy0wLjc0LTAuMzMgICAgIEMwLDkwLjk3LDAsOTAuMjksMC40MSw4OS44OWwyNy41Mi0yNy41M2MwLjQxLTAuNCwxLjA4LTAuNCwxLjQ5LDBjMC40LDAuNDEsMC40LDEuMDksMCwxLjQ5TDEuODksOTEuMzggICAgIEMxLjY5LDkxLjUxLDEuNDIsOTEuNzEsMS4xNSw5MS43MXoiLz4mI3hhOwkJPC9nPiYjeGE7CQk8ZyBpZD0ic2hhcGU0MTMtNTIiIHRyYW5zZm9ybT0idHJhbnNsYXRlKDI3LjcyNzgsLTYyLjE0MzEpIj4mI3hhOwkJCTx0aXRsZSBpZD0idGl0bGUxNTAxNDkiPlNoZWV0LjQxMzwvdGl0bGU+JiN4YTsJCQk8cGF0aCBpZD0icGF0aDE1MDE1MSIgaW5rc2NhcGU6Y29ubmVjdG9yLWN1cnZhdHVyZT0iMCIgc3R5bGU9ImZpbGw6IzAwOTI0NTsiIGQ9Ik00Ljk0LDkxLjcxSDEuMDFDMC40MSw5MS43MSwwLDkxLjI0LDAsOTAuNyAgICAgYzAtMC42MSwwLjQ3LTEuMDEsMS4wMS0xLjAxaDMuOTNjMC42MSwwLDEuMDEsMC40NywxLjAxLDEuMDFDNS45NSw5MS4xNyw1LjQ4LDkxLjcxLDQuOTQsOTEuNzF6Ii8+JiN4YTsJCTwvZz4mI3hhOwkJPGcgaWQ9InNoYXBlNDE0LTU0IiB0cmFuc2Zvcm09InRyYW5zbGF0ZSgzMS42NTAyLC01OC4yODgyKSI+JiN4YTsJCQk8dGl0bGUgaWQ9InRpdGxlMTUwMTU0Ij5TaGVldC40MTQ8L3RpdGxlPiYjeGE7CQkJPHBhdGggaWQ9InBhdGgxNTAxNTYiIGlua3NjYXBlOmNvbm5lY3Rvci1jdXJ2YXR1cmU9IjAiIHN0eWxlPSJmaWxsOiMwMDkyNDU7IiBkPSJNMS4wMSw5MS43MUMwLjQxLDkxLjcxLDAsOTEuMjQsMCw5MC43di0zLjkyICAgICBjMC0wLjYxLDAuNDctMS4wMiwxLjAxLTEuMDJjMC42MSwwLDEuMDIsMC40OCwxLjAyLDEuMDJ2My45MkMyLjAzLDkxLjI0LDEuNTYsOTEuNzEsMS4wMSw5MS43MXoiLz4mI3hhOwkJPC9nPiYjeGE7CQk8ZyBpZD0ic2hhcGU0MTUtNTYiIHRyYW5zZm9ybT0idHJhbnNsYXRlKDMxLjUxNSwtNjIuMTQzMSkiPiYjeGE7CQkJPHRpdGxlIGlkPSJ0aXRsZTE1MDE1OSI+U2hlZXQuNDE1PC90aXRsZT4mI3hhOwkJCTxwYXRoIGlkPSJwYXRoMTUwMTYxIiBpbmtzY2FwZTpjb25uZWN0b3ItY3VydmF0dXJlPSIwIiBzdHlsZT0iZmlsbDojMDA5MjQ1OyIgZD0iTTEuMTUsOTEuNzFjLTAuMjcsMC0wLjU0LTAuMTMtMC43NC0wLjMzICAgICBDMCw5MC45NywwLDkwLjI5LDAuNDEsODkuODlMNi4yOSw4NGMwLjQxLTAuNCwxLjA4LTAuNCwxLjQ5LDBjMC40LDAuNDEsMC40LDEuMDksMCwxLjQ5bC01Ljg5LDUuODkgICAgIEMxLjY5LDkxLjUxLDEuNDIsOTEuNzEsMS4xNSw5MS43MXoiLz4mI3hhOwkJPC9nPiYjeGE7CQk8ZyBpZD0ic2hhcGU0MTYtNTgiIHRyYW5zZm9ybT0icm90YXRlKC00NSwtMzguNDU3ODUsMS4zNjk0NjMpIj4mI3hhOwkJCTx0aXRsZSBpZD0idGl0bGUxNTAxNjQiPlNoZWV0LjQxNjwvdGl0bGU+JiN4YTsJCQk8Y2lyY2xlIGlkPSJlbGxpcHNlMTUwMTY2IiBzdHlsZT0iZmlsbDojQzlEQTJBOyIgY3g9IjUuNjgiIGN5PSI4Ni4wMyIgcj0iNS42OCIvPiYjeGE7CQk8L2c+JiN4YTsJCTxnIGlkPSJzaGFwZTQxNy02MCIgdHJhbnNmb3JtPSJyb3RhdGUoLTQ0Ljk5NTksLTQwLjIwNDM3MywxNC4yOTA0NDMpIj4mI3hhOwkJCTx0aXRsZSBpZD0idGl0bGUxNTAxNjkiPlNoZWV0LjQxNzwvdGl0bGU+JiN4YTsJCQkmI3hhOwkJCQk8cmVjdCBpZD0icmVjdDE1MDE3MSIgeD0iMCIgeT0iOTAuNSIgdHJhbnNmb3JtPSJtYXRyaXgoLTEgMi4zODc2NDVlLTA2IC0yLjM4NzY0NWUtMDYgLTEgMjguNjA5NSAxODIuMjEyNCkiIHN0eWxlPSJmaWxsOiMwMDkyNDU7IiB3aWR0aD0iMjguNjEiIGhlaWdodD0iMS4yMiIvPiYjeGE7CQk8L2c+JiN4YTsJCTxnIGlkPSJzaGFwZTQxOC02MiIgdHJhbnNmb3JtPSJ0cmFuc2xhdGUoMjkuNzU2NiwtNjIuNDgxMikiPiYjeGE7CQkJPHRpdGxlIGlkPSJ0aXRsZTE1MDE3NCI+U2hlZXQuNDE4PC90aXRsZT4mI3hhOwkJCTxwYXRoIGlkPSJwYXRoMTUwMTc2IiBpbmtzY2FwZTpjb25uZWN0b3ItY3VydmF0dXJlPSIwIiBzdHlsZT0iZmlsbDojMjJCNTczOyIgZD0iTTAsNzcuMzFsNy43MS03LjcxbDE0LjM0LDEyLjExbC05Ljk0LDEwICAgICBMMCw3Ny4zMXoiLz4mI3hhOwkJPC9nPiYjeGE7CQk8ZyBpZD0ic2hhcGU0MTktNjQiIHRyYW5zZm9ybT0idHJhbnNsYXRlKDM3LjYwMTUsLTUxLjk5ODgpIj4mI3hhOwkJCTx0aXRsZSBpZD0idGl0bGUxNTAxNzkiPlNoZWV0LjQxOTwvdGl0bGU+JiN4YTsJCQk8cGF0aCBpZD0icGF0aDE1MDE4MSIgaW5rc2NhcGU6Y29ubmVjdG9yLWN1cnZhdHVyZT0iMCIgc3R5bGU9ImZpbGw6IzIyQjU3MzsiIGQ9Ik0yNC42OCw3MS41Nkw0LjQ2LDkxLjcxTDAsNzQuOTRsNy44NC03LjkxICAgICBMMjQuNjgsNzEuNTZ6Ii8+JiN4YTsJCTwvZz4mI3hhOwkJPGcgaWQ9InNoYXBlNDIwLTY2IiB0cmFuc2Zvcm09InRyYW5zbGF0ZSgxNC44NzgzLC02LjY4NzU3KSI+JiN4YTsJCQk8dGl0bGUgaWQ9InRpdGxlMTUwMTg0Ij5TaGVldC40MjA8L3RpdGxlPiYjeGE7CQkJPHBhdGggaWQ9InBhdGgxNTAxODYiIGlua3NjYXBlOmNvbm5lY3Rvci1jdXJ2YXR1cmU9IjAiIHN0eWxlPSJmaWxsOiMyMkI1NzM7IiBkPSJNMjIuMjUsODYuMTdINS41NUMyLjUsODYuMTcsMCw4OC42NywwLDkxLjcxICAgICBoMjcuODZDMjcuODYsODguNzQsMjUuMzYsODYuMTcsMjIuMjUsODYuMTd6Ii8+JiN4YTsJCTwvZz4mI3hhOwkJPGcgaWQ9InNoYXBlNDIxLTY4IiB0cmFuc2Zvcm09InRyYW5zbGF0ZSgxMy44NjUyKSI+JiN4YTsJCQk8dGl0bGUgaWQ9InRpdGxlMTUwMTg5Ij5TaGVldC40MjE8L3RpdGxlPiYjeGE7CQkJPHJlY3QgaWQ9InJlY3QxNTAxOTEiIHg9IjAiIHk9Ijg0LjIxIiBzdHlsZT0iZmlsbDojMDBBRUVGOyIgd2lkdGg9IjEyMC42NCIgaGVpZ2h0PSI3LjUxIi8+JiN4YTsJCTwvZz4mI3hhOwk8L2c+JiN4YTs8L2c+JiN4YTs8L3N2Zz4=;" parent="1" vertex="1">
          <mxGeometry x="183" y="124.5" width="27" height="25" as="geometry"/>
        </mxCell>
        <mxCell id="j1X4c3lry06MQMG_WzWm-29" style="edgeStyle=none;rounded=0;orthogonalLoop=1;jettySize=auto;html=1;exitX=0.5;exitY=1;exitDx=0;exitDy=0;fontSize=9;" parent="1" source="j1X4c3lry06MQMG_WzWm-14" target="j1X4c3lry06MQMG_WzWm-24" edge="1">
          <mxGeometry relative="1" as="geometry"/>
        </mxCell>
        <mxCell id="j1X4c3lry06MQMG_WzWm-14" value="" style="shape=image;html=1;verticalAlign=top;verticalLabelPosition=bottom;labelBackgroundColor=#ffffff;imageAspect=0;aspect=fixed;image=https://cdn1.iconfinder.com/data/icons/user-avatar-20/64/33-Swat-128.png" parent="1" vertex="1">
          <mxGeometry x="187.5" y="168.5" width="25" height="35" as="geometry"/>
        </mxCell>
        <mxCell id="j1X4c3lry06MQMG_WzWm-15" value="First&amp;nbsp; responder" style="text;html=1;strokeColor=none;fillColor=none;align=center;verticalAlign=middle;whiteSpace=wrap;rounded=0;fontSize=10;" parent="1" vertex="1">
          <mxGeometry x="167" y="99.5" width="70" height="20" as="geometry"/>
        </mxCell>
        <mxCell id="j1X4c3lry06MQMG_WzWm-28" style="edgeStyle=none;rounded=0;orthogonalLoop=1;jettySize=auto;html=1;exitX=0.25;exitY=0;exitDx=0;exitDy=0;entryX=0.5;entryY=0;entryDx=0;entryDy=0;fontSize=9;" parent="1" source="j1X4c3lry06MQMG_WzWm-16" target="j1X4c3lry06MQMG_WzWm-27" edge="1">
          <mxGeometry relative="1" as="geometry"/>
        </mxCell>
        <mxCell id="j1X4c3lry06MQMG_WzWm-16" value="" style="aspect=fixed;html=1;perimeter=none;align=center;shadow=0;dashed=0;image;fontSize=12;image=img/lib/mscae/Automation.svg;" parent="1" vertex="1">
          <mxGeometry x="115" y="116.5" width="30" height="40" as="geometry"/>
        </mxCell>
        <mxCell id="j1X4c3lry06MQMG_WzWm-19" value="&lt;font style=&quot;font-size: 10px&quot;&gt;Self Healing Automation and Run books&lt;/font&gt;" style="text;html=1;strokeColor=none;fillColor=none;align=center;verticalAlign=middle;whiteSpace=wrap;rounded=0;" parent="1" vertex="1">
          <mxGeometry x="57" y="98" width="73" height="27" as="geometry"/>
        </mxCell>
        <mxCell id="j1X4c3lry06MQMG_WzWm-22" style="edgeStyle=none;rounded=0;orthogonalLoop=1;jettySize=auto;html=1;exitX=0;exitY=0.5;exitDx=0;exitDy=0;entryX=0;entryY=0.5;entryDx=0;entryDy=0;" parent="1" source="j1X4c3lry06MQMG_WzWm-27" target="j1X4c3lry06MQMG_WzWm-14" edge="1">
          <mxGeometry relative="1" as="geometry">
            <mxPoint x="127" y="181.5" as="sourcePoint"/>
            <mxPoint x="189" y="176.5" as="targetPoint"/>
          </mxGeometry>
        </mxCell>
        <mxCell id="j1X4c3lry06MQMG_WzWm-23" value="Escalation/SWAT" style="text;html=1;strokeColor=none;fillColor=none;align=center;verticalAlign=middle;whiteSpace=wrap;rounded=0;fontSize=10;" parent="1" vertex="1">
          <mxGeometry x="187" y="150.5" width="30" height="20" as="geometry"/>
        </mxCell>
        <mxCell id="KyXaF-SN7KRc0o7MAkgT-51" style="edgeStyle=orthogonalEdgeStyle;rounded=0;orthogonalLoop=1;jettySize=auto;html=1;entryX=0;entryY=0.5;entryDx=0;entryDy=0;fontSize=10;strokeColor=#0066CC;" parent="1" source="j1X4c3lry06MQMG_WzWm-24" target="KyXaF-SN7KRc0o7MAkgT-50" edge="1">
          <mxGeometry relative="1" as="geometry">
            <Array as="points">
              <mxPoint x="201" y="282"/>
            </Array>
          </mxGeometry>
        </mxCell>
        <mxCell id="j1X4c3lry06MQMG_WzWm-26" value="Communication/Action" style="text;html=1;strokeColor=none;fillColor=none;align=center;verticalAlign=middle;whiteSpace=wrap;rounded=0;fontSize=10;fontStyle=1" parent="1" vertex="1">
          <mxGeometry x="104" y="220.5" width="52" height="17" as="geometry"/>
        </mxCell>
        <mxCell id="j1X4c3lry06MQMG_WzWm-27" value="" style="shape=image;html=1;verticalAlign=top;verticalLabelPosition=bottom;labelBackgroundColor=#ffffff;imageAspect=0;aspect=fixed;image=https://cdn2.iconfinder.com/data/icons/kids/128x128/apps/agt_action_fail.png;fontSize=10;" parent="1" vertex="1">
          <mxGeometry x="124" y="178.5" width="12" height="13" as="geometry"/>
        </mxCell>
        <mxCell id="KyXaF-SN7KRc0o7MAkgT-1" style="edgeStyle=none;rounded=0;orthogonalLoop=1;jettySize=auto;html=1;exitX=0;exitY=0.5;exitDx=0;exitDy=0;entryX=1.033;entryY=0.366;entryDx=0;entryDy=0;entryPerimeter=0;fontSize=10;" parent="1" source="j1X4c3lry06MQMG_WzWm-32" target="j1X4c3lry06MQMG_WzWm-38" edge="1">
          <mxGeometry relative="1" as="geometry"/>
        </mxCell>
        <mxCell id="KyXaF-SN7KRc0o7MAkgT-34" style="edgeStyle=orthogonalEdgeStyle;rounded=0;orthogonalLoop=1;jettySize=auto;html=1;exitX=0.5;exitY=0;exitDx=0;exitDy=0;entryX=0.002;entryY=0.077;entryDx=0;entryDy=0;entryPerimeter=0;fontSize=10;" parent="1" source="j1X4c3lry06MQMG_WzWm-32" target="j1X4c3lry06MQMG_WzWm-47" edge="1">
          <mxGeometry relative="1" as="geometry"/>
        </mxCell>
        <mxCell id="j1X4c3lry06MQMG_WzWm-32" value="" style="aspect=fixed;perimeter=ellipsePerimeter;html=1;align=center;shadow=0;dashed=0;fontColor=#4277BB;labelBackgroundColor=#ffffff;fontSize=12;spacingTop=3;image;image=img/lib/ibm/infrastructure/monitoring.svg;" parent="1" vertex="1">
          <mxGeometry x="346" y="354.5" width="30" height="30" as="geometry"/>
        </mxCell>
        <mxCell id="KyXaF-SN7KRc0o7MAkgT-2" style="edgeStyle=none;rounded=0;orthogonalLoop=1;jettySize=auto;html=1;exitX=0;exitY=0.5;exitDx=0;exitDy=0;entryX=1.007;entryY=0.665;entryDx=0;entryDy=0;entryPerimeter=0;fontSize=10;" parent="1" source="j1X4c3lry06MQMG_WzWm-33" target="j1X4c3lry06MQMG_WzWm-38" edge="1">
          <mxGeometry relative="1" as="geometry"/>
        </mxCell>
        <mxCell id="KyXaF-SN7KRc0o7MAkgT-33" style="edgeStyle=orthogonalEdgeStyle;rounded=0;orthogonalLoop=1;jettySize=auto;html=1;exitX=1;exitY=0.5;exitDx=0;exitDy=0;entryX=0;entryY=0.25;entryDx=0;entryDy=0;fontSize=10;" parent="1" source="j1X4c3lry06MQMG_WzWm-33" target="j1X4c3lry06MQMG_WzWm-47" edge="1">
          <mxGeometry relative="1" as="geometry"/>
        </mxCell>
        <mxCell id="j1X4c3lry06MQMG_WzWm-33" value="" style="shape=image;html=1;verticalAlign=top;verticalLabelPosition=bottom;labelBackgroundColor=#ffffff;imageAspect=0;aspect=fixed;image=https://cdn2.iconfinder.com/data/icons/font-awesome/1792/ticket-128.png;fontSize=9;" parent="1" vertex="1">
          <mxGeometry x="277" y="401.5" width="34" height="34" as="geometry"/>
        </mxCell>
        <mxCell id="j1X4c3lry06MQMG_WzWm-36" value="Monitoring Sources" style="text;html=1;strokeColor=none;fillColor=none;align=center;verticalAlign=middle;whiteSpace=wrap;rounded=0;fontSize=10;" parent="1" vertex="1">
          <mxGeometry x="324" y="387.5" width="72" height="17" as="geometry"/>
        </mxCell>
        <mxCell id="j1X4c3lry06MQMG_WzWm-37" value="Support tickets" style="text;html=1;strokeColor=none;fillColor=none;align=center;verticalAlign=middle;whiteSpace=wrap;rounded=0;fontSize=10;" parent="1" vertex="1">
          <mxGeometry x="306" y="415.5" width="70" height="20" as="geometry"/>
        </mxCell>
        <mxCell id="j1X4c3lry06MQMG_WzWm-38" value="" style="rounded=0;whiteSpace=wrap;html=1;fontSize=9;" parent="1" vertex="1">
          <mxGeometry x="60" y="310" width="150" height="161" as="geometry"/>
        </mxCell>
        <mxCell id="KyXaF-SN7KRc0o7MAkgT-52" style="edgeStyle=orthogonalEdgeStyle;rounded=0;orthogonalLoop=1;jettySize=auto;html=1;fontSize=10;strokeColor=#0066CC;" parent="1" edge="1">
          <mxGeometry relative="1" as="geometry">
            <mxPoint x="419.5" y="282" as="targetPoint"/>
            <mxPoint x="130.84482758620697" y="319.5" as="sourcePoint"/>
            <Array as="points">
              <mxPoint x="130.5" y="282"/>
            </Array>
          </mxGeometry>
        </mxCell>
        <mxCell id="j1X4c3lry06MQMG_WzWm-39" value="&lt;font style=&quot;font-size: 15px&quot;&gt;TEDx and Other Platforms&lt;/font&gt;" style="text;html=1;strokeColor=none;fillColor=none;align=center;verticalAlign=middle;whiteSpace=wrap;rounded=0;fontStyle=1" parent="1" vertex="1">
          <mxGeometry x="66.5" y="317.5" width="130" height="20" as="geometry"/>
        </mxCell>
        <mxCell id="j1X4c3lry06MQMG_WzWm-40" value="" style="shape=image;html=1;verticalAlign=top;verticalLabelPosition=bottom;labelBackgroundColor=#ffffff;imageAspect=0;aspect=fixed;image=https://cdn3.iconfinder.com/data/icons/message-and-communication-sets/50/Icon_Manager_Chat-128.png;fontSize=9;" parent="1" vertex="1">
          <mxGeometry x="72" y="346.5" width="31" height="31" as="geometry"/>
        </mxCell>
        <mxCell id="j1X4c3lry06MQMG_WzWm-41" value="" style="shape=image;html=1;verticalAlign=top;verticalLabelPosition=bottom;labelBackgroundColor=#ffffff;imageAspect=0;aspect=fixed;image=https://cdn1.iconfinder.com/data/icons/engineering-or-engineer-solid-1/64/Builder_architect_construction_contractor_mechanical_engineer_engineer_engineering_developer_technician_workers_cog_cogwheel-128.png;fontSize=9;direction=south;" parent="1" vertex="1">
          <mxGeometry x="71" y="382.5" width="32" height="32" as="geometry"/>
        </mxCell>
        <mxCell id="j1X4c3lry06MQMG_WzWm-42" value="Response manager" style="text;html=1;strokeColor=none;fillColor=none;align=center;verticalAlign=middle;whiteSpace=wrap;rounded=0;fontSize=10;" parent="1" vertex="1">
          <mxGeometry x="98" y="351.5" width="89" height="20" as="geometry"/>
        </mxCell>
        <mxCell id="j1X4c3lry06MQMG_WzWm-43" value="Engineers" style="text;html=1;strokeColor=none;fillColor=none;align=center;verticalAlign=middle;whiteSpace=wrap;rounded=0;fontSize=10;" parent="1" vertex="1">
          <mxGeometry x="110" y="387.5" width="70" height="20" as="geometry"/>
        </mxCell>
        <mxCell id="j1X4c3lry06MQMG_WzWm-44" value="" style="aspect=fixed;html=1;perimeter=none;align=center;shadow=0;dashed=0;image;fontSize=12;image=img/lib/mscae/Automation.svg;" parent="1" vertex="1">
          <mxGeometry x="70" y="420" width="30" height="40" as="geometry"/>
        </mxCell>
        <mxCell id="j1X4c3lry06MQMG_WzWm-45" value="Automation" style="text;html=1;strokeColor=none;fillColor=none;align=center;verticalAlign=middle;whiteSpace=wrap;rounded=0;fontSize=10;" parent="1" vertex="1">
          <mxGeometry x="127.5" y="430" width="30" height="20" as="geometry"/>
        </mxCell>
        <mxCell id="j1X4c3lry06MQMG_WzWm-47" value="" style="rounded=0;whiteSpace=wrap;html=1;fontSize=9;" parent="1" vertex="1">
          <mxGeometry x="479" y="60" width="170" height="190" as="geometry"/>
        </mxCell>
        <mxCell id="j1X4c3lry06MQMG_WzWm-48" value="&lt;font style=&quot;font-size: 15px&quot;&gt;Collaboration tools&lt;/font&gt;" style="text;html=1;strokeColor=none;fillColor=none;align=center;verticalAlign=middle;whiteSpace=wrap;rounded=0;fontStyle=1" parent="1" vertex="1">
          <mxGeometry x="510" y="69" width="130" height="20" as="geometry"/>
        </mxCell>
        <mxCell id="j1X4c3lry06MQMG_WzWm-50" value="Failed to remediate" style="text;html=1;strokeColor=none;fillColor=none;align=center;verticalAlign=middle;whiteSpace=wrap;rounded=0;fontSize=10;" parent="1" vertex="1">
          <mxGeometry x="84" y="170.5" width="30" height="20" as="geometry"/>
        </mxCell>
        <mxCell id="KyXaF-SN7KRc0o7MAkgT-3" style="edgeStyle=none;rounded=0;orthogonalLoop=1;jettySize=auto;html=1;entryX=1;entryY=0.5;entryDx=0;entryDy=0;fontSize=10;" parent="1" source="j1X4c3lry06MQMG_WzWm-1" target="j1X4c3lry06MQMG_WzWm-11" edge="1">
          <mxGeometry relative="1" as="geometry"/>
        </mxCell>
        <mxCell id="KyXaF-SN7KRc0o7MAkgT-10" value="" style="shape=image;verticalLabelPosition=bottom;labelBackgroundColor=#ffffff;verticalAlign=top;aspect=fixed;imageAspect=0;image=data:image/svg+xml,PHN2ZyB4bWxuczpjYz0iaHR0cDovL2NyZWF0aXZlY29tbW9ucy5vcmcvbnMjIiB4bWxuczpkYz0iaHR0cDovL3B1cmwub3JnL2RjL2VsZW1lbnRzLzEuMS8iIHhtbG5zOmlua3NjYXBlPSJodHRwOi8vd3d3Lmlua3NjYXBlLm9yZy9uYW1lc3BhY2VzL2lua3NjYXBlIiB4bWxuczpyZGY9Imh0dHA6Ly93d3cudzMub3JnLzE5OTkvMDIvMjItcmRmLXN5bnRheC1ucyMiIHhtbG5zOnNvZGlwb2RpPSJodHRwOi8vc29kaXBvZGkuc291cmNlZm9yZ2UubmV0L0RURC9zb2RpcG9kaS0wLmR0ZCIgeG1sbnM6c3ZnPSJodHRwOi8vd3d3LnczLm9yZy8yMDAwL3N2ZyIgeG1sbnM9Imh0dHA6Ly93d3cudzMub3JnLzIwMDAvc3ZnIiB4bWxuczp4bGluaz0iaHR0cDovL3d3dy53My5vcmcvMTk5OS94bGluayIgdmVyc2lvbj0iMS4xIiBpZD0ic3ZnMTQ5NTIwIiBpbmtzY2FwZTp2ZXJzaW9uPSIwLjkyLjMgKDI0MDU1NDYsIDIwMTgtMDMtMTEpIiBzb2RpcG9kaTpkb2NuYW1lPSJkZXZlbG9wZXIuc3ZnIiB4PSIwcHgiIHk9IjBweCIgdmlld0JveD0iMCAwIDExOS4yNCA5Ny40NCIgc3R5bGU9ImVuYWJsZS1iYWNrZ3JvdW5kOm5ldyAwIDAgMTE5LjI0IDk3LjQ0OyIgeG1sOnNwYWNlPSJwcmVzZXJ2ZSI+JiN4YTs8c29kaXBvZGk6bmFtZWR2aWV3IGJvcmRlcmNvbG9yPSIjNjY2NjY2IiBib3JkZXJvcGFjaXR5PSIxIiBmaXQtbWFyZ2luLWJvdHRvbT0iMCIgZml0LW1hcmdpbi1sZWZ0PSIwIiBmaXQtbWFyZ2luLXJpZ2h0PSIwIiBmaXQtbWFyZ2luLXRvcD0iMCIgZ3JpZHRvbGVyYW5jZT0iMTAiIGd1aWRldG9sZXJhbmNlPSIxMCIgaWQ9Im5hbWVkdmlldzE0OTUyMiIgaW5rc2NhcGU6Y3VycmVudC1sYXllcj0ic3ZnMTQ5NTIwIiBpbmtzY2FwZTpjeD0iNzkuNDkwMjQ1IiBpbmtzY2FwZTpjeT0iNjQuOTYxNzI4IiBpbmtzY2FwZTpwYWdlb3BhY2l0eT0iMCIgaW5rc2NhcGU6cGFnZXNoYWRvdz0iMiIgaW5rc2NhcGU6d2luZG93LWhlaWdodD0iMTAxNyIgaW5rc2NhcGU6d2luZG93LW1heGltaXplZD0iMSIgaW5rc2NhcGU6d2luZG93LXdpZHRoPSIxOTIwIiBpbmtzY2FwZTp3aW5kb3cteD0iLTgiIGlua3NjYXBlOndpbmRvdy15PSItOCIgaW5rc2NhcGU6em9vbT0iNi41NzIzODgyIiBvYmplY3R0b2xlcmFuY2U9IjEwIiBwYWdlY29sb3I9IiNmZmZmZmYiIHNob3dncmlkPSJmYWxzZSI+JiN4YTsJPC9zb2RpcG9kaTpuYW1lZHZpZXc+JiN4YTs8ZyBpZD0iZzE0OTUxOCIgdHJhbnNmb3JtPSJ0cmFuc2xhdGUoLTAuNzUsLTAuNzQ4MzMzNzUpIj4mI3hhOwk8dGl0bGUgaWQ9InRpdGxlMTQ5MzkyIj5QYWdlLTE8L3RpdGxlPiYjeGE7CTxnIGlkPSJncm91cDM2MS0xIiB0cmFuc2Zvcm09InRyYW5zbGF0ZSgwLjc1LC0wLjc1KSI+JiN4YTsJCTx0aXRsZSBpZD0idGl0bGUxNDkzOTQiPkRldmVsb3BlcjwvdGl0bGU+JiN4YTsJCTxnIGlkPSJzaGFwZTM2Mi0yIiB0cmFuc2Zvcm09InRyYW5zbGF0ZSgxMC43NzY4LC0zNS44NTcyKSI+JiN4YTsJCQk8dGl0bGUgaWQ9InRpdGxlMTQ5Mzk2Ij5wYXRoNzczLjE5MjE8L3RpdGxlPiYjeGE7CQkJPHBhdGggaWQ9InBhdGgxNDkzOTgiIGlua3NjYXBlOmNvbm5lY3Rvci1jdXJ2YXR1cmU9IjAiIHN0eWxlPSJmaWxsOiNFQ0QxOEY7IiBkPSJNMCw0Mi4wMmg2NC42OXY1Ni45MkgwVjQyLjAyeiIvPiYjeGE7CQk8L2c+JiN4YTsJCTxnIGlkPSJzaGFwZTM2My00Ij4mI3hhOwkJCTx0aXRsZSBpZD0idGl0bGUxNDk0MDEiPnBhdGg3NzM8L3RpdGxlPiYjeGE7CQkJPHBhdGggaWQ9InBhdGgxNDk0MDMiIGlua3NjYXBlOmNvbm5lY3Rvci1jdXJ2YXR1cmU9IjAiIHN0eWxlPSJmaWxsOiNDMzk3NEY7IiBkPSJNMCw4My42N2gxMTkuMjR2MTUuMjdIMFY4My42N3oiLz4mI3hhOwkJPC9nPiYjeGE7CQk8ZyBpZD0ic2hhcGUzNjQtNiIgdHJhbnNmb3JtPSJ0cmFuc2xhdGUoNDYuMjExMywtMjQuMTY1NCkiPiYjeGE7CQkJPHRpdGxlIGlkPSJ0aXRsZTE0OTQwNiI+cGF0aDc3NTwvdGl0bGU+JiN4YTsJCQk8cGF0aCBpZD0icGF0aDE0OTQwOCIgaW5rc2NhcGU6Y29ubmVjdG9yLWN1cnZhdHVyZT0iMCIgc3R5bGU9ImZpbGw6I0ZGRkZGRjsiIGQ9Ik0yMi4xMSw3My4yNmwtMy4yLTcuMjNsLTAuMzgtMC4wN0wxLjIxLDY4Ljc3ICAgICBMMCw3Mi42M2wwLjI5LDQuNzRsMTEuNDYsMjEuNTdsOC4yNi0xMy4yMkwyMi4xMSw3My4yNnoiLz4mI3hhOwkJPC9nPiYjeGE7CQk8ZyBpZD0ic2hhcGUzNjUtOCIgdHJhbnNmb3JtPSJ0cmFuc2xhdGUoNDcuNzk3MSwtMzkuNDY1MSkiPiYjeGE7CQkJPHRpdGxlIGlkPSJ0aXRsZTE0OTQxMSI+cGF0aDc3NzwvdGl0bGU+JiN4YTsJCQk8cGF0aCBpZD0icGF0aDE0OTQxMyIgaW5rc2NhcGU6Y29ubmVjdG9yLWN1cnZhdHVyZT0iMCIgc3R5bGU9ImZpbGw6I0VDRDE4RjsiIGQ9Ik0yLjE4LDc4LjVMMCw4NC43NGwxLjEyLDYuMDNMNC4yNSw5NSAgICAgbDQuODMsMy45NGwwLjE1LTE1LjAybC0xLjY5LTAuMTlMMi4xOCw3OC41eiIvPiYjeGE7CQk8L2c+JiN4YTsJCTxnIGlkPSJzaGFwZTM2Ni0xMCIgdHJhbnNmb3JtPSJ0cmFuc2xhdGUoNDkuNzE1MywtMzkuMjU4NykiPiYjeGE7CQkJPHRpdGxlIGlkPSJ0aXRsZTE0OTQxNiI+cGF0aDc3OTwvdGl0bGU+JiN4YTsJCQk8cGF0aCBpZD0icGF0aDE0OTQxOCIgaW5rc2NhcGU6Y29ubmVjdG9yLWN1cnZhdHVyZT0iMCIgc3R5bGU9ImZpbGw6I0YxRERBRTsiIGQ9Ik0xNC45NSw3Ny41NWwtNi4wMyw1LjM4bC0xLjY5LDAuMTlsLTEuNy0wLjE5ICAgICBsLTUuMjYtNC42NGwwLjE1LDcuNkwwLDkxLjU4bDIuMzMsMy4yMmw0Ljk2LDQuMTRoMC4wNGw0Ljk2LTQuMTRsMi4zMy0zLjIybDAuNTEtNS45MUwxNC45NSw3Ny41NXoiLz4mI3hhOwkJPC9nPiYjeGE7CQk8ZyBpZD0ic2hhcGUzNjctMTIiIHRyYW5zZm9ybT0idHJhbnNsYXRlKDE4LjI0OTksLTExLjc5MDcpIj4mI3hhOwkJCTx0aXRsZSBpZD0idGl0bGUxNDk0MjEiPnBhdGg3ODE8L3RpdGxlPiYjeGE7CQkJPHBhdGggaWQ9InBhdGgxNDk0MjMiIGlua3NjYXBlOmNvbm5lY3Rvci1jdXJ2YXR1cmU9IjAiIHN0eWxlPSJmaWxsOiMwMzgyQkU7IiBkPSJNNC40MSw2OC4xM2w2LjY3LTUuNzlsOC4yMy0yLjE2bDMuMjEtMS44NCAgICAgbDMuMzYtMC4zOGwzLjQyLTUuMTNsMi40My0yLjAxbC0yLjE4LDYuMjVsLTAuMDksMy42MWwwLjU2LDMuOThsMi4xMywzLjE2bDUuNjcsNC43NGwxLjg5LDEyLjQxbC0wLjU1LDEzLjk3TDEuNDIsOTUuMzNMMCw5Mi43OSAgICAgbDAuNjktOC4wNWwyLjM5LTQuNzJMNC40MSw2OC4xM3oiLz4mI3hhOwkJPC9nPiYjeGE7CQk8ZyBpZD0ic2hhcGUzNjgtMTQiIHRyYW5zZm9ybT0idHJhbnNsYXRlKDQyLjI2OTMsLTM1Ljk4MTMpIj4mI3hhOwkJCTx0aXRsZSBpZD0idGl0bGUxNDk0MjYiPnBhdGg3ODM8L3RpdGxlPiYjeGE7CQkJPHBhdGggaWQ9InBhdGgxNDk0MjgiIGlua3NjYXBlOmNvbm5lY3Rvci1jdXJ2YXR1cmU9IjAiIHN0eWxlPSJmaWxsOiMwMDcxQTY7IiBkPSJNMCw4Ny41NWwxLjktNS40bDMuMzgtNS4xM2wyLjQzLTIuMDEgICAgIGwtMi4xMyw2LjI1bC0wLjA5LDMuNjFsMC41NiwzLjk4bDIuMTMsMy4xNmw1LjYyLDQuNzRsLTEyLDIuMTlMMCw4Ny41NXoiLz4mI3hhOwkJPC9nPiYjeGE7CQk8ZyBpZD0ic2hhcGUzNjktMTYiIHRyYW5zZm9ybT0idHJhbnNsYXRlKDU3LjQxMywtMTEuNzkwNykiPiYjeGE7CQkJPHRpdGxlIGlkPSJ0aXRsZTE0OTQzMSI+cGF0aDc4NTwvdGl0bGU+JiN4YTsJCQk8cGF0aCBpZD0icGF0aDE0OTQzMyIgaW5rc2NhcGU6Y29ubmVjdG9yLWN1cnZhdHVyZT0iMCIgc3R5bGU9ImZpbGw6IzAzODJCRTsiIGQ9Ik0zMi4zLDY1Ljg0bC00LjgxLTIuODJMMjMsNjEuOWwtNC4yLTIuMSAgICAgbC01LjM5LTEuMzFsLTEuOTUtMC42NGwtMy43NS00LjE5bDEuMTQsMy40MWwwLjA4LDMuNjFsLTAuNTUsMy45OEw3LjcyLDY4LjVsLTUuNDgsNS4ybC0xLjcsMTEuMzVMMCw5OC45NGwzNS40OC0zLjU3bDEuMDMtMi4wNCAgICAgbC0xLjI2LTcuMWwtMC4xNi0xMS40NEwzMi4zLDY1Ljg0eiIvPiYjeGE7CQk8L2c+JiN4YTsJCTxnIGlkPSJzaGFwZTM3MC0xOCIgdHJhbnNmb3JtPSJ0cmFuc2xhdGUoNTkuNjg4NSwtMzcuMDI4NCkiPiYjeGE7CQkJPHRpdGxlIGlkPSJ0aXRsZTE0OTQzNiI+cGF0aDc4NzwvdGl0bGU+JiN4YTsJCQk8cGF0aCBpZD0icGF0aDE0OTQzOCIgaW5rc2NhcGU6Y29ubmVjdG9yLWN1cnZhdHVyZT0iMCIgc3R5bGU9ImZpbGw6IzAwNzFBNjsiIGQ9Ik0xMi42Miw4OC44MmwwLjQyLTIuN2wtMy44Ni0zLjAzbC0zLjc0LTQuMiAgICAgbDEuMDgsMy40MWwwLjA5LDMuNjFMNi4wNSw4OS45bC0wLjY5LDMuOUwwLDk4Ljk0bDE0LjItMC44NkwxMi42Miw4OC44MnoiLz4mI3hhOwkJPC9nPiYjeGE7CQk8ZyBpZD0ic2hhcGUzNzEtMjAiIHRyYW5zZm9ybT0idHJhbnNsYXRlKDE5LjY2OTYsLTExLjA4NTkpIj4mI3hhOwkJCTx0aXRsZSBpZD0idGl0bGUxNDk0NDEiPnBhdGg3ODk8L3RpdGxlPiYjeGE7CQkJPHBhdGggaWQ9InBhdGgxNDk0NDMiIGlua3NjYXBlOmNvbm5lY3Rvci1jdXJ2YXR1cmU9IjAiIHN0eWxlPSJmaWxsOiNGMUREQUU7IiBkPSJNNSw4Mi40M2wtNC4wNiwzLjVMMCw5Mi43MmwzLjQyLDIuOCAgICAgbDE5Ljg5LDMuNDJsMi44My02LjMxTDUsODIuNDN6IE02OC4yNiw4Mi40M2w0LjA3LDMuNWwwLjk0LDYuNzlsLTMuNDMsMi44bC0xOS44OSwzLjQybC0yLjgzLTYuMzFMNjguMjYsODIuNDN6Ii8+JiN4YTsJCTwvZz4mI3hhOwkJPGcgaWQ9InNoYXBlMzcyLTIyIiB0cmFuc2Zvcm09InRyYW5zbGF0ZSg0Mi44MDgsLTUzLjk3NDQpIj4mI3hhOwkJCTx0aXRsZSBpZD0idGl0bGUxNDk0NDYiPnBhdGg3OTE8L3RpdGxlPiYjeGE7CQkJPHBhdGggaWQ9InBhdGgxNDk0NDgiIGlua3NjYXBlOmNvbm5lY3Rvci1jdXJ2YXR1cmU9IjAiIHN0eWxlPSJmaWxsOiNGN0VCRDA7IiBkPSJNMjcuNzUsNzYuMTVsLTEuMjcsMC41MmwtMC4yOS0xMi44OSAgICAgbC0xMS45Ny0wLjE3aC0wLjAxTDIuMjUsNjMuNzhsLTAuMywxMi44OWwtMS4yNy0wLjUyTDAsNzYuMjVsMC4wNiw1Ljg5bDEuNTcsMy4zbDEuOTUsMS4wMWwxLjM4LDQuODZsMy4wMiwzLjY2bDQuNTUsMy43OCAgICAgbDEuNjgsMC4xOWgwLjAxbDEuNjktMC4xOWw0LjU0LTMuNzhsMy4wMy0zLjY2bDEuMzgtNC44NmwxLjk1LTEuMDFsMS41Ny0zLjNsMC4wNS01Ljg5TDI3Ljc1LDc2LjE1eiIvPiYjeGE7CQk8L2c+JiN4YTsJCTxnIGlkPSJzaGFwZTM3My0yNCIgdHJhbnNmb3JtPSJ0cmFuc2xhdGUoNDUuOTI5NCwtNTMuOTY5NCkiPiYjeGE7CQkJPHRpdGxlIGlkPSJ0aXRsZTE0OTQ1MSI+cGF0aDc5MzwvdGl0bGU+JiN4YTsJCQk8cGF0aCBpZD0icGF0aDE0OTQ1MyIgaW5rc2NhcGU6Y29ubmVjdG9yLWN1cnZhdHVyZT0iMCIgc3R5bGU9ImZpbGw6IzRGNEQ0QjsiIGQ9Ik0yMS42Niw4NC4xOWwtMC41LDEuNjdsLTEuODMsMy4yM2wtMi42LDEuNzEgICAgIGwtMS4wNS0xLjc3TDExLjEsODguMmwtNC42MSwwLjgzTDUuNDUsOTAuOGwtMi42MS0xLjcxbC0xLjgzLTMuMjNMMC41LDg0LjE5TDAsODQuMDdsMC40NiwyLjM4bDEuMzcsNC44NmwzLjAyLDMuNjZMOC44LDk4LjcgICAgIGwyLjI4LDAuMjRsMi4yOS0wLjI0bDMuOTQtMy43M2wzLjAyLTMuNjZsMS40MS00Ljg2bDAuNDQtMi4zOEwyMS42Niw4NC4xOXogTTEzLjYxLDk0Ljc2bC0xLjM5LDAuMTRsLTEtMC43SDEwLjlsLTEuMDEsMC43ICAgICBsLTEuMzgtMC4xNGwtMi4zMi0yLjA1bDAuODMtMi44MWw0LjAzLTAuMDhsNC4wMiwwLjA4bDAuODYsMi44M0wxMy42MSw5NC43NnoiLz4mI3hhOwkJPC9nPiYjeGE7CQk8ZyBpZD0ic2hhcGUzNzQtMjYiIHRyYW5zZm9ybT0idHJhbnNsYXRlKDQ0Ljc0MTIsLTU5LjUyMjQpIj4mI3hhOwkJCTx0aXRsZSBpZD0idGl0bGUxNDk0NTYiPnBhdGg3OTU8L3RpdGxlPiYjeGE7CQkJPHBhdGggaWQ9InBhdGgxNDk0NTgiIGlua3NjYXBlOmNvbm5lY3Rvci1jdXJ2YXR1cmU9IjAiIHN0eWxlPSJmaWxsOiM0RjRENEI7IiBkPSJNMTMuMjcsOTcuNzVIMTEuM2wwLjUsMC45MWwwLjQ4LDAuMjd2MC4wMSAgICAgdi0wLjAxbDAuMDEsMC4wMXYtMC4wMWwwLjQ4LTAuMjdMMTMuMjcsOTcuNzV6IE0yNC41Nyw4MS41M2wtMS43MiwwLjIybC0wLjE5LTAuMDdsLTIuMzUtMC40NmgtMy44OWwtMy41OSwwLjU4SDExLjdsLTMuNTktMC41OCAgICAgSDQuMjRMMS45LDgxLjY4bC0wLjE4LDAuMDZMMCw4MS41M3YwLjY5bDAuOTMsMC4xMmwwLjcsMy4yNmwwLjYxLDAuNjFsMS44NSwwLjQ2aDMuMTNsMi43NC0wLjYzbDEuNDEtMi4yNmwwLjU3LTAuNjRoMC42NSAgICAgbDAuNTcsMC42NGwxLjQxLDIuMjZsMi43NCwwLjYzaDMuMTNsMS44NS0wLjQ2bDAuNjEtMC42MWwwLjctMy4yNmwwLjkzLTAuMTJMMjQuNTcsODEuNTN6IE0xMC4zOSw4My4yOGwtMC43NywyLjE4bC0yLjU3LDAuNTUgICAgIEg0LjAzbC0xLjM3LTAuMzRsLTAuNTEtMC40NGwtMC4zNi0yLjQxbDAuNDEtMC41MWwyLjAxLTAuMzhoMy44NWwyLjM1LDAuMzZMMTAuMzksODMuMjh6IE0yMi40MSw4NS4yMmwtMC41MSwwLjQ0bC0xLjM2LDAuMzUgICAgIGgtMy4wM2wtMi41Ni0wLjU2bC0wLjc4LTIuMTZ2LTEuMDFsMi4zNS0wLjM1aDMuODRsMi4wMSwwLjM4bDAuNDEsMC41TDIyLjQxLDg1LjIyeiIvPiYjeGE7CQk8L2c+JiN4YTsJCTxnIGlkPSJzaGFwZTM3NS0yOCIgdHJhbnNmb3JtPSJ0cmFuc2xhdGUoNDIuOTk0MywtNzYuMjQxOCkiPiYjeGE7CQkJPHRpdGxlIGlkPSJ0aXRsZTE0OTQ2MSI+cGF0aDc5NzwvdGl0bGU+JiN4YTsJCQk8cGF0aCBpZD0icGF0aDE0OTQ2MyIgaW5rc2NhcGU6Y29ubmVjdG9yLWN1cnZhdHVyZT0iMCIgc3R5bGU9ImZpbGw6IzRGNEQ0QjsiIGQ9Ik0yNy42NCw4NC4zbC0yLjEtMi4xNGwtMy4wNy0yLjAybC00LjQtMS44MSAgICAgbC00LjAzLTAuNTloLTAuMDFsLTQuMDQsMC41OWwtMy42NywyLjI1bC0zLjQsMy4zOWwtMC42NywwLjE3TDAsOTAuMzVsMC4xNiw2Ljc3bDAuMzQsMS4yOWwxLjI3LDAuNTNsMC40NC04LjdsMi44MS0zLjk1ICAgICBsNi40MSwwLjdsMi4yOCwyLjExaDAuNjRsMi4yOC0yLjExbDYuNDEtMC43bDIuODIsMy45NWwwLjQzLDguN2wxLjI3LTAuNTNsMC4zNS0xLjI5bDAuNTktNi44M0wyNy42NCw4NC4zeiIvPiYjeGE7CQk8L2c+JiN4YTsJCTxnIGlkPSJzaGFwZTM3Ni0zMCIgdHJhbnNmb3JtPSJ0cmFuc2xhdGUoNTQuNzE0NSwtNjUuNDM3OSkiPiYjeGE7CQkJPHRpdGxlIGlkPSJ0aXRsZTE0OTQ2NiI+cGF0aDc5OTwvdGl0bGU+JiN4YTsJCQk8cGF0aCBpZD0icGF0aDE0OTQ2OCIgaW5rc2NhcGU6Y29ubmVjdG9yLWN1cnZhdHVyZT0iMCIgc3R5bGU9ImZpbGw6I0VDRDE4RjsiIGQ9Ik0xLjYxLDk4LjVsLTEtMC4yMUwwLDk4LjYybDAuNSwwLjMyTDEuNjEsOTguNSAgICAgeiBNMy4wNiw5OC41bDAuOTktMC4yMWwwLjYxLDAuMzNsLTAuNTEsMC4zMkwzLjA2LDk4LjV6Ii8+JiN4YTsJCTwvZz4mI3hhOwkJPGcgaWQ9InNoYXBlMzc3LTMyIiB0cmFuc2Zvcm09InRyYW5zbGF0ZSg0MS4wNTEsLTY2LjA4NzMpIj4mI3hhOwkJCTx0aXRsZSBpZD0idGl0bGUxNDk0NzEiPnBhdGg4MDE8L3RpdGxlPiYjeGE7CQkJPHBhdGggaWQ9InBhdGgxNDk0NzMiIGlua3NjYXBlOmNvbm5lY3Rvci1jdXJ2YXR1cmU9IjAiIHN0eWxlPSJmaWxsOiMzRjU3NjU7IiBkPSJNMy43Myw4Ny44MmwwLjA5LDQuOTFsMS4wOCwzLjQ1bDAuNDQsMi4zOCAgICAgbC0xLjY1LDAuMzhIMi40NWwtMC4xNC0wLjY5SDAuOTRMMCw5My4yM2wwLjUtNC43MmwwLjksMC4yN2wwLjA0LTAuOTlMMy43Myw4Ny44MnogTTI4LjIyLDg3LjgybC0wLjA5LDQuOTFsLTEuMDgsMy40NSAgICAgbC0wLjQzLDIuMzhsMS42NCwwLjM4aDEuMjRsMC4xNC0wLjY5aDEuMzdsMC45NC01LjAybC0wLjUtNC43MmwtMC45LDAuMjdsLTAuMDUtMC45OUwyOC4yMiw4Ny44MnoiLz4mI3hhOwkJPC9nPiYjeGE7CQk8ZyBpZD0ic2hhcGUzNzgtMzQiIHRyYW5zZm9ybT0idHJhbnNsYXRlKDIxLjQxNjYsLTMuNTM0MTkpIj4mI3hhOwkJCTx0aXRsZSBpZD0idGl0bGUxNDk0NzYiPnBhdGg4MDM8L3RpdGxlPiYjeGE7CQkJPHBhdGggaWQ9InBhdGgxNDk0NzgiIGlua3NjYXBlOmNvbm5lY3Rvci1jdXJ2YXR1cmU9IjAiIHN0eWxlPSJmaWxsOiMzRjU3NjU7IiBkPSJNMjAuMzYsMTUuNDFsLTEuOTcsOC45N2wwLjI0LDUuMDN2MS40ICAgICBsMC4zOCwxLjNsMC44NC0wLjMybDAuMTctMS4xMWwtMC4yNC0xLjMxbDAuMDUtNC43MWwxLjc1LTguNDJsNS4yNy02LjI1bDguNzYtMS40NFY3LjE2bC05LjM2LDEuNDhMMjAuMzYsMTUuNDF6IE01MC44NiwxNS40MSAgICAgbC01Ljg5LTYuNzdsLTkuMzYtMS40OHYxLjM5bDguNzYsMS40NGw1LjI3LDYuMjVsMS43NSw4LjQybDAuMDYsNC43MWwtMC4yNSwxLjMxbDAuMTgsMS4xMWwwLjgzLDAuMzJsMC4zOC0xLjN2LTEuNGwwLjI1LTUuMDMgICAgIEw1MC44NiwxNS40MXogTTksOTguOTRsLTcuMzYtMS4zMUwwLDkzLjA1bDMuNTQtMy4yNGw2LjMxLTEuMmw4LjA1LTI0LjI3bDIuMDEtMTMuMDRsNC4wNi02LjIybC0xLjE1LTkuMzJsMS0wLjE2bDEuMjIsOS43ICAgICBsLTQuMTgsNi4zOGwtMiwxMi45NGwtOC4yNCwyNC44N2wtNi42MSwxLjI1bC0yLjg0LDIuNmwxLjIyLDMuNGw2LjgsMS4yMUw5LDk4Ljk0eiIvPiYjeGE7CQk8L2c+JiN4YTsJCTxnIGlkPSJzaGFwZTM3OS0zNiIgdHJhbnNmb3JtPSJ0cmFuc2xhdGUoMzAuMjY3MiwtMS45ODM1OCkiPiYjeGE7CQkJPHRpdGxlIGlkPSJ0aXRsZTE0OTQ4MSI+cGF0aDgwNTwvdGl0bGU+JiN4YTsJCQk8cGF0aCBpZD0icGF0aDE0OTQ4MyIgaW5rc2NhcGU6Y29ubmVjdG9yLWN1cnZhdHVyZT0iMCIgc3R5bGU9ImZpbGw6IzRGNEQ0QjsiIGQ9Ik01MC42Miw2NS4xNUgxLjMyTDAsNjYuMzl2MzIuNTVoNTEuOTRWNjYuNDYgICAgIEw1MC42Miw2NS4xNXoiLz4mI3hhOwkJPC9nPiYjeGE7CQk8ZyBpZD0iZ3JvdXAzODAtMzgiIHRyYW5zZm9ybT0idHJhbnNsYXRlKDUxLjYyMDgsLTE0LjI2NTMpIj4mI3hhOwkJCTx0aXRsZSBpZD0idGl0bGUxNDk0ODYiPk1pY3Jvc29mdDwvdGl0bGU+JiN4YTsJCQk8ZyBpZD0ic2hhcGUzODEtMzkiIHRyYW5zZm9ybT0idHJhbnNsYXRlKDAsLTQuODYyOTEpIj4mI3hhOwkJCQk8dGl0bGUgaWQ9InRpdGxlMTQ5NDg4Ij5IVFRQIEFQSSBBcHA8L3RpdGxlPiYjeGE7CQkJCTxwYXRoIGlkPSJwYXRoMTQ5NDkwIiBpbmtzY2FwZTpjb25uZWN0b3ItY3VydmF0dXJlPSIwIiBzdHlsZT0iZmlsbDojRjI1MDIyOyIgZD0iTTAsOTQuNTd2NC4zN2g0LjM3di00LjM3SDB6Ii8+JiN4YTsJCQk8L2c+JiN4YTsJCQk8ZyBpZD0ic2hhcGUzODItNDEiIHRyYW5zZm9ybT0idHJhbnNsYXRlKDQuODYwMDYsLTQuODYyOTEpIj4mI3hhOwkJCQk8dGl0bGUgaWQ9InRpdGxlMTQ5NDkzIj5IVFRQIEFQSSBBcHAuMTQ2MTwvdGl0bGU+JiN4YTsJCQkJPHBhdGggaWQ9InBhdGgxNDk0OTUiIGlua3NjYXBlOmNvbm5lY3Rvci1jdXJ2YXR1cmU9IjAiIHN0eWxlPSJmaWxsOiM3RkJBMDA7IiBkPSJNMCw5NC41N3Y0LjM3aDQuMzd2LTQuMzdIMHoiLz4mI3hhOwkJCTwvZz4mI3hhOwkJCTxnIGlkPSJzaGFwZTM4My00MyIgdHJhbnNmb3JtPSJ0cmFuc2xhdGUoNC44NjAwNikiPiYjeGE7CQkJCTx0aXRsZSBpZD0idGl0bGUxNDk0OTgiPkhUVFAgQVBJIEFwcC4xNDYyPC90aXRsZT4mI3hhOwkJCQk8cGF0aCBpZD0icGF0aDE0OTUwMCIgaW5rc2NhcGU6Y29ubmVjdG9yLWN1cnZhdHVyZT0iMCIgc3R5bGU9ImZpbGw6I0ZGQjkwMDsiIGQ9Ik0wLDk0LjU3djQuMzdoNC4zN3YtNC4zN0gweiIvPiYjeGE7CQkJPC9nPiYjeGE7CQkJPGcgaWQ9InNoYXBlMzg0LTQ1Ij4mI3hhOwkJCQk8dGl0bGUgaWQ9InRpdGxlMTQ5NTAzIj5IVFRQIEFQSSBBcHAuMTQ2MzwvdGl0bGU+JiN4YTsJCQkJPHBhdGggaWQ9InBhdGgxNDk1MDUiIGlua3NjYXBlOmNvbm5lY3Rvci1jdXJ2YXR1cmU9IjAiIHN0eWxlPSJmaWxsOiMwMEE0RUY7IiBkPSJNMCw5NC41N3Y0LjM3aDQuMzd2LTQuMzdIMHoiLz4mI3hhOwkJCTwvZz4mI3hhOwkJPC9nPiYjeGE7CQk8ZyBpZD0iZ3JvdXAzODUtNDciIHRyYW5zZm9ybT0idHJhbnNsYXRlKDE1LjM4MzUsLTcwLjc0NDUpIj4mI3hhOwkJCTx0aXRsZSBpZD0idGl0bGUxNDk1MDkiPlZpc3VhbCBTdHVkaW88L3RpdGxlPiYjeGE7CQkJPGcgaWQ9InNoYXBlMzg2LTQ4Ij4mI3hhOwkJCQk8dGl0bGUgaWQ9InRpdGxlMTQ5NTExIj5TaGVldC4zODY8L3RpdGxlPiYjeGE7CQkJCTxwYXRoIGlkPSJwYXRoMTQ5NTEzIiBpbmtzY2FwZTpjb25uZWN0b3ItY3VydmF0dXJlPSIwIiBzdHlsZT0iZmlsbDojNjgyMTdBOyIgZD0iTTEzLjA5LDkzLjQ3bC00LjI2LTMuMzlsNC4yNi0zLjM4VjkzLjQ3eiAgICAgICBNMS45MSw5Mi41N3YtNC44NmwyLjMyLDIuNDlMMS45MSw5Mi41N3ogTTEzLjE4LDgxLjUybC02Ljc2LDYuNDNsLTQuMjQtMi45OEwwLDg1Ljc1djguNzNsMS41MSwxLjExbDQuNy0zLjU0bDYuOTEsNi44OSAgICAgIGw0LjI5LTEuNzRWODMuMjZMMTMuMTgsODEuNTJ6Ii8+JiN4YTsJCQk8L2c+JiN4YTsJCTwvZz4mI3hhOwk8L2c+JiN4YTs8L2c+JiN4YTs8L3N2Zz4=;fontSize=10;" parent="1" vertex="1">
          <mxGeometry x="496" y="145" width="48" height="39" as="geometry"/>
        </mxCell>
        <mxCell id="KyXaF-SN7KRc0o7MAkgT-11" value="" style="shape=image;verticalLabelPosition=bottom;labelBackgroundColor=#ffffff;verticalAlign=top;aspect=fixed;imageAspect=0;image=data:image/svg+xml,PHN2ZyB4bWxuczpjYz0iaHR0cDovL2NyZWF0aXZlY29tbW9ucy5vcmcvbnMjIiB4bWxuczpkYz0iaHR0cDovL3B1cmwub3JnL2RjL2VsZW1lbnRzLzEuMS8iIHhtbG5zOmlua3NjYXBlPSJodHRwOi8vd3d3Lmlua3NjYXBlLm9yZy9uYW1lc3BhY2VzL2lua3NjYXBlIiB4bWxuczpyZGY9Imh0dHA6Ly93d3cudzMub3JnLzE5OTkvMDIvMjItcmRmLXN5bnRheC1ucyMiIHhtbG5zOnNvZGlwb2RpPSJodHRwOi8vc29kaXBvZGkuc291cmNlZm9yZ2UubmV0L0RURC9zb2RpcG9kaS0wLmR0ZCIgeG1sbnM6c3ZnPSJodHRwOi8vd3d3LnczLm9yZy8yMDAwL3N2ZyIgeG1sbnM9Imh0dHA6Ly93d3cudzMub3JnLzIwMDAvc3ZnIiB4bWxuczp4bGluaz0iaHR0cDovL3d3dy53My5vcmcvMTk5OS94bGluayIgdmVyc2lvbj0iMS4xIiBpZD0ic3ZnNjc4MzQiIGlua3NjYXBlOnZlcnNpb249IjAuOTIuMyAoMjQwNTU0NiwgMjAxOC0wMy0xMSkiIHNvZGlwb2RpOmRvY25hbWU9ImJvdC5zdmciIHg9IjBweCIgeT0iMHB4IiB2aWV3Qm94PSIwIDAgNjEuNjcgODUuMTciIHN0eWxlPSJlbmFibGUtYmFja2dyb3VuZDpuZXcgMCAwIDYxLjY3IDg1LjE3OyIgeG1sOnNwYWNlPSJwcmVzZXJ2ZSI+JiN4YTs8c29kaXBvZGk6bmFtZWR2aWV3IGJvcmRlcmNvbG9yPSIjNjY2NjY2IiBib3JkZXJvcGFjaXR5PSIxIiBmaXQtbWFyZ2luLWJvdHRvbT0iMCIgZml0LW1hcmdpbi1sZWZ0PSIwIiBmaXQtbWFyZ2luLXJpZ2h0PSIwIiBmaXQtbWFyZ2luLXRvcD0iMCIgZ3JpZHRvbGVyYW5jZT0iMTAiIGd1aWRldG9sZXJhbmNlPSIxMCIgaWQ9Im5hbWVkdmlldzY3ODM2IiBpbmtzY2FwZTpjdXJyZW50LWxheWVyPSJzdmc2NzgzNCIgaW5rc2NhcGU6Y3g9IjMwLjgzNTY0OCIgaW5rc2NhcGU6Y3k9IjQ4LjE2MTg3MSIgaW5rc2NhcGU6cGFnZW9wYWNpdHk9IjAiIGlua3NjYXBlOnBhZ2VzaGFkb3c9IjIiIGlua3NjYXBlOndpbmRvdy1oZWlnaHQ9IjEwMTciIGlua3NjYXBlOndpbmRvdy1tYXhpbWl6ZWQ9IjEiIGlua3NjYXBlOndpbmRvdy13aWR0aD0iMTkyMCIgaW5rc2NhcGU6d2luZG93LXg9Ii04IiBpbmtzY2FwZTp3aW5kb3cteT0iLTgiIGlua3NjYXBlOnpvb209IjUuMjk2NDI0OCIgb2JqZWN0dG9sZXJhbmNlPSIxMCIgcGFnZWNvbG9yPSIjZmZmZmZmIiBzaG93Z3JpZD0iZmFsc2UiPiYjeGE7CTwvc29kaXBvZGk6bmFtZWR2aWV3PiYjeGE7PGcgaWQ9Imc2NzgzMiIgdHJhbnNmb3JtPSJ0cmFuc2xhdGUoLTEuNTI5ODkzLC0wLjg5NDUwOTgpIj4mI3hhOwk8dGl0bGUgaWQ9InRpdGxlNjc2OTYiPlBhZ2UtMTwvdGl0bGU+JiN4YTsJPGcgaWQ9Imdyb3VwNTcwOS0xIiB0cmFuc2Zvcm09InRyYW5zbGF0ZSgzLjg3NzUsLTAuNzUpIj4mI3hhOwkJPHRpdGxlIGlkPSJ0aXRsZTY3Njk4Ij5Cb3Q8L3RpdGxlPiYjeGE7CQk8ZyBpZD0iZ3JvdXA1NzEwLTIiPiYjeGE7CQkJPHRpdGxlIGlkPSJ0aXRsZTY3NzAwIj5nNzA3MTwvdGl0bGU+JiN4YTsJCQk8ZyBpZD0iZ3JvdXA1NzExLTMiIHRyYW5zZm9ybT0idHJhbnNsYXRlKDI0LjYxMzgsLTU5LjI0MjUpIj4mI3hhOwkJCQk8dGl0bGUgaWQ9InRpdGxlNjc3MDIiPmc3MDQxPC90aXRsZT4mI3hhOwkJCQk8ZyBpZD0ic2hhcGU1NzEyLTQiIHRyYW5zZm9ybT0idHJhbnNsYXRlKDEuODYxMTYpIj4mI3hhOwkJCQkJPHRpdGxlIGlkPSJ0aXRsZTY3NzA0Ij5yZWN0NzAzNzwvdGl0bGU+JiN4YTsJCQkJCTxwYXRoIGlkPSJwYXRoNjc3MDYiIGlua3NjYXBlOmNvbm5lY3Rvci1jdXJ2YXR1cmU9IjAiIHN0eWxlPSJmaWxsOiMwMDc4RDc7IiBkPSJNMCw4NS4zMWMwLDAuODMsMC42NywxLjUsMS41LDEuNWgwLjI3ICAgICAgIGMwLjgzLDAsMS41LTAuNjcsMS41LTEuNVY3NS4yNWMwLTAuODMtMC42Ny0xLjUtMS41LTEuNUgxLjVjLTAuODMsMC0xLjUsMC42Ny0xLjUsMS41Vjg1LjMxeiIvPiYjeGE7CQkJCTwvZz4mI3hhOwkJCQk8ZyBpZD0ic2hhcGU1NzEzLTYiIHRyYW5zZm9ybT0idHJhbnNsYXRlKDAsLTEyLjA3MjYpIj4mI3hhOwkJCQkJPHRpdGxlIGlkPSJ0aXRsZTY3NzA5Ij5wYXRoNzAzOTwvdGl0bGU+JiN4YTsJCQkJCTxwYXRoIGlkPSJwYXRoNjc3MTEiIGlua3NjYXBlOmNvbm5lY3Rvci1jdXJ2YXR1cmU9IjAiIHN0eWxlPSJmaWxsOiMwMDc4RDc7IiBkPSJNMy41LDc4LjQ2Yy0yLjctMC4wMi00LjkxLDIuMTctNC45Miw0Ljg3ICAgICAgIHMyLjE3LDQuOTEsNC44Nyw0LjkyczQuOTEtMi4xNyw0LjkyLTQuODdjMCwwLDAtMC4wMSwwLTAuMDFDOC4zOCw4MC42Nyw2LjIsNzguNDgsMy41LDc4LjQ2eiBNMy41LDg1LjgxICAgICAgIGMtMS4zNSwwLTIuNDUtMS4xLTIuNDUtMi40NWMwLTEuMzUsMS4xLTIuNDUsMi40NS0yLjQ2czIuNDUsMS4xLDIuNDUsMi40NWMwLDAsMCwwLDAsMEM1Ljk1LDg0LjcxLDQuODYsODUuODIsMy41LDg1LjgxICAgICAgIGMwLDAuMDEsMCwwLjAxLDAsMC4wMVY4NS44MXoiLz4mI3hhOwkJCQk8L2c+JiN4YTsJCQk8L2c+JiN4YTsJCQk8ZyBpZD0ic2hhcGU1NzE0LTgiIHRyYW5zZm9ybT0idHJhbnNsYXRlKDExLjk4NSwtNDQuOTI1KSI+JiN4YTsJCQkJPHRpdGxlIGlkPSJ0aXRsZTY3NzE1Ij5yZWN0NzA0MzwvdGl0bGU+JiN4YTsJCQkJJiN4YTsJCQkJCTxwYXRoIGlkPSJwYXRoNjc3MTciIGlua3NjYXBlOmNvbm5lY3Rvci1jdXJ2YXR1cmU9IjAiIHN0eWxlPSJmaWxsOiNFNkU2RTY7c3Ryb2tlOiM3MzczNzM7c3Ryb2tlLXdpZHRoOjEuNTtzdHJva2UtbWl0ZXJsaW1pdDozOyIgZD0iICAgICAgTTAsODMuODFjMCwxLjY2LDEuMzQsMywzLDNoMjcuNzVjMS42NiwwLDMtMS4zNCwzLTN2LTEwLjVjMC0xLjY2LTEuMzQtMy0zLTNIM2MtMS42NiwwLTMsMS4zNC0zLDNWODMuODF6Ii8+JiN4YTsJCQk8L2c+JiN4YTsJCQk8ZyBpZD0ic2hhcGU1NzE1LTEwIiB0cmFuc2Zvcm09InRyYW5zbGF0ZSgxNy45ODUsLTQuOTEyNSkiPiYjeGE7CQkJCTx0aXRsZSBpZD0idGl0bGU2NzcyMCI+cmVjdDcwNDU8L3RpdGxlPiYjeGE7CQkJCTxwYXRoIGlkPSJwYXRoNjc3MjIiIGlua3NjYXBlOmNvbm5lY3Rvci1jdXJ2YXR1cmU9IjAiIHN0eWxlPSJmaWxsOiM3MzczNzM7IiBkPSJNMCw4NS4zMWMwLDAuODMsMC42NywxLjUsMS41LDEuNWgyLjQgICAgICBjMC44MywwLDEuNS0wLjY3LDEuNS0xLjV2LTEzLjJjMC0wLjgzLTAuNjctMS41LTEuNS0xLjVIMS41Yy0wLjgzLDAtMS41LDAuNjctMS41LDEuNVY4NS4zMXoiLz4mI3hhOwkJCTwvZz4mI3hhOwkJCTxnIGlkPSJzaGFwZTU3MTYtMTIiIHRyYW5zZm9ybT0idHJhbnNsYXRlKDE0LjMxKSI+JiN4YTsJCQkJPHRpdGxlIGlkPSJ0aXRsZTY3NzI1Ij5wYXRoNzA0NzwvdGl0bGU+JiN4YTsJCQkJPHBhdGggaWQ9InBhdGg2NzcyNyIgaW5rc2NhcGU6Y29ubmVjdG9yLWN1cnZhdHVyZT0iMCIgc3R5bGU9ImZpbGw6IzAwNzhENzsiIGQ9Ik02LjUzLDgwLjA2QzIuODYsODAuMTItMC4wNiw4My4xNCwwLDg2LjgxICAgICAgaDEzLjA2QzEzLjEyLDgzLjE0LDEwLjIsODAuMTIsNi41Myw4MC4wNnoiLz4mI3hhOwkJCTwvZz4mI3hhOwkJCTxnIGlkPSJzaGFwZTU3MTctMTQiIHRyYW5zZm9ybT0idHJhbnNsYXRlKDMyLjk4NSwtNC45MTI1KSI+JiN4YTsJCQkJPHRpdGxlIGlkPSJ0aXRsZTY3NzMwIj5yZWN0NzA0OTwvdGl0bGU+JiN4YTsJCQkJPHBhdGggaWQ9InBhdGg2NzczMiIgaW5rc2NhcGU6Y29ubmVjdG9yLWN1cnZhdHVyZT0iMCIgc3R5bGU9ImZpbGw6IzczNzM3MzsiIGQ9Ik0wLDg1LjMxYzAsMC44MywwLjY3LDEuNSwxLjUsMS41aDIuNCAgICAgIGMwLjgzLDAsMS41LTAuNjcsMS41LTEuNXYtMTMuMmMwLTAuODMtMC42Ny0xLjUtMS41LTEuNUgxLjVjLTAuODMsMC0xLjUsMC42Ny0xLjUsMS41Vjg1LjMxeiIvPiYjeGE7CQkJPC9nPiYjeGE7CQkJPGcgaWQ9InNoYXBlNTcxOC0xNiIgdHJhbnNmb3JtPSJ0cmFuc2xhdGUoMjkuMTYpIj4mI3hhOwkJCQk8dGl0bGUgaWQ9InRpdGxlNjc3MzUiPnBhdGg3MDUxPC90aXRsZT4mI3hhOwkJCQk8cGF0aCBpZD0icGF0aDY3NzM3IiBpbmtzY2FwZTpjb25uZWN0b3ItY3VydmF0dXJlPSIwIiBzdHlsZT0iZmlsbDojMDA3OEQ3OyIgZD0iTTYuNTMsODAuMDZDMi44Niw4MC4xMi0wLjA2LDgzLjE0LDAsODYuODEgICAgICBoMTMuMDZDMTMuMTIsODMuMTQsMTAuMiw4MC4xMiw2LjUzLDgwLjA2eiIvPiYjeGE7CQkJPC9nPiYjeGE7CQkJPGcgaWQ9InNoYXBlNTcxOS0xOCIgdHJhbnNmb3JtPSJyb3RhdGUoLTg1LjA2LC0xNS43NTM3ODksNTAuMTA4NTQxKSI+JiN4YTsJCQkJPHRpdGxlIGlkPSJ0aXRsZTY3NzQwIj5jaXJjbGU3MDUzPC90aXRsZT4mI3hhOwkJCQk8Y2lyY2xlIGlkPSJlbGxpcHNlNjc3NDIiIHN0eWxlPSJmaWxsOiMwMDIwNTA7IiBjeD0iMi43IiBjeT0iODQuMTEiIHI9IjIuNyIvPiYjeGE7CQkJPC9nPiYjeGE7CQkJPGcgaWQ9InNoYXBlNTcyMC0yMCIgdHJhbnNmb3JtPSJyb3RhdGUoLTg1LjA2LC02LjY0MDIyOTksNDAuMTczNTA0KSI+JiN4YTsJCQkJPHRpdGxlIGlkPSJ0aXRsZTY3NzQ1Ij5jaXJjbGU3MDU1PC90aXRsZT4mI3hhOwkJCQk8Y2lyY2xlIGlkPSJlbGxpcHNlNjc3NDciIHN0eWxlPSJmaWxsOiMwMDIwNTA7IiBjeD0iMi43IiBjeT0iODQuMTEiIHI9IjIuNyIvPiYjeGE7CQkJPC9nPiYjeGE7CQkJPGcgaWQ9InNoYXBlNTcyMS0yMiIgdHJhbnNmb3JtPSJ0cmFuc2xhdGUoMzkuMjg1LC0yNS44Mzc1KSI+JiN4YTsJCQkJPHRpdGxlIGlkPSJ0aXRsZTY3NzUwIj5wYXRoNzA1NzwvdGl0bGU+JiN4YTsJCQkJPHBhdGggaWQ9InBhdGg2Nzc1MiIgaW5rc2NhcGU6Y29ubmVjdG9yLWN1cnZhdHVyZT0iMCIgc3R5bGU9ImZpbGw6IzZENkU3MTsiIGQ9Ik0xNS41Miw4MC43NHY2LjA3aC0zLjM3di02LjEzICAgICAgYzAtMC40My0wLjA0LTAuODYtMC4xLTEuMjljLTAuNS0zLjMtMi44My01LjUxLTUuODYtNS41MUgwdi0zLjIzaDYuMjFjNC43LDAsOC42LDMuOTUsOS4yMiw4Ljc3ICAgICAgQzE1LjQ5LDc5Ljg2LDE1LjUyLDgwLjMsMTUuNTIsODAuNzR6Ii8+JiN4YTsJCQk8L2c+JiN4YTsJCQk8ZyBpZD0ic2hhcGU1NzIyLTI0IiB0cmFuc2Zvcm09InRyYW5zbGF0ZSg0OS45NSwtMTkuNSkiPiYjeGE7CQkJCTx0aXRsZSBpZD0idGl0bGU2Nzc1NSI+cGF0aDcwNTk8L3RpdGxlPiYjeGE7CQkJCTxwYXRoIGlkPSJwYXRoNjc3NTciIGlua3NjYXBlOmNvbm5lY3Rvci1jdXJ2YXR1cmU9IjAiIHN0eWxlPSJmaWxsOm5vbmU7IiBkPSJNMCw4Ni44MWMtMS40NS0xLjk0LTEuMDYtNC42OSwwLjg4LTYuMTQgICAgICBzNC42OS0xLjA2LDYuMTQsMC44OGMxLjE3LDEuNTYsMS4xNywzLjcxLDAsNS4yNkgweiIvPiYjeGE7CQkJCSYjeGE7CQkJCQk8cGF0aCBpZD0icGF0aDY3NzU5IiBpbmtzY2FwZTpjb25uZWN0b3ItY3VydmF0dXJlPSIwIiBzdHlsZT0iZmlsbDpub25lO3N0cm9rZTojNkQ2RTcxO3N0cm9rZS13aWR0aDozO3N0cm9rZS1taXRlcmxpbWl0OjM7IiBkPSIgICAgICBNMCw4Ni44MWMtMS40NS0xLjk0LTEuMDYtNC42OSwwLjg4LTYuMTRzNC42OS0xLjA2LDYuMTQsMC44OGMxLjE3LDEuNTYsMS4xNywzLjcxLDAsNS4yNiIvPiYjeGE7CQkJPC9nPiYjeGE7CQkJPGcgaWQ9InNoYXBlNTcyMy0yNyIgdHJhbnNmb3JtPSJ0cmFuc2xhdGUoNDEuMzEsLTMzLjI2MjUpIj4mI3hhOwkJCQk8dGl0bGUgaWQ9InRpdGxlNjc3NjIiPnBhdGg3MDYxPC90aXRsZT4mI3hhOwkJCQk8cGF0aCBpZD0icGF0aDY3NzY0IiBpbmtzY2FwZTpjb25uZWN0b3ItY3VydmF0dXJlPSIwIiBzdHlsZT0iZmlsbDojMDA3OEQ3OyIgZD0iTTEzLjQyLDg2LjgxaC0zLjM3ICAgICAgYy0wLjUtMy4yOS0yLjgzLTUuNS01Ljg3LTUuNUgwdi0zLjI0aDQuMThDOC45Miw3OC4wNywxMi43OSw4MS45OSwxMy40Miw4Ni44MXoiLz4mI3hhOwkJCTwvZz4mI3hhOwkJCTxnIGlkPSJzaGFwZTU3MjQtMjkiIHRyYW5zZm9ybT0idHJhbnNsYXRlKDIuMTYsLTI1LjgzNzUpIj4mI3hhOwkJCQk8dGl0bGUgaWQ9InRpdGxlNjc3NjciPnBhdGg3MDYzPC90aXRsZT4mI3hhOwkJCQk8cGF0aCBpZD0icGF0aDY3NzY5IiBpbmtzY2FwZTpjb25uZWN0b3ItY3VydmF0dXJlPSIwIiBzdHlsZT0iZmlsbDojNkQ2RTcxOyIgZD0iTTAsODAuNzR2Ni4wN2gzLjM3di02LjEzICAgICAgYzAtMC40MywwLjA0LTAuODYsMC4xLTEuMjljMC41LTMuMywyLjgzLTUuNTEsNS44Ny01LjUxaDYuMjF2LTMuMjNIOS4zNGMtNC43MSwwLTguNjEsMy45NS05LjIzLDguNzcgICAgICBDMC4wNCw3OS44NiwwLjAxLDgwLjMsMCw4MC43NHoiLz4mI3hhOwkJCTwvZz4mI3hhOwkJCTxnIGlkPSJzaGFwZTU3MjUtMzEiIHRyYW5zZm9ybT0idHJhbnNsYXRlKDAsLTE5LjUpIj4mI3hhOwkJCQk8dGl0bGUgaWQ9InRpdGxlNjc3NzIiPnBhdGg3MDY1PC90aXRsZT4mI3hhOwkJCQk8cGF0aCBpZD0icGF0aDY3Nzc0IiBpbmtzY2FwZTpjb25uZWN0b3ItY3VydmF0dXJlPSIwIiBzdHlsZT0iZmlsbDpub25lOyIgZD0iTTcuMDIsODYuODFjMS40NS0xLjk0LDEuMDYtNC42OS0wLjg4LTYuMTQgICAgICBTMS40NSw3OS42MSwwLDgxLjU1Yy0xLjE3LDEuNTYtMS4xNywzLjcxLDAsNS4yNkg3LjAyeiIvPiYjeGE7CQkJCSYjeGE7CQkJCQk8cGF0aCBpZD0icGF0aDY3Nzc2IiBpbmtzY2FwZTpjb25uZWN0b3ItY3VydmF0dXJlPSIwIiBzdHlsZT0iZmlsbDpub25lO3N0cm9rZTojNkQ2RTcxO3N0cm9rZS13aWR0aDozO3N0cm9rZS1taXRlcmxpbWl0OjM7IiBkPSIgICAgICBNNy4wMiw4Ni44MWMxLjQ1LTEuOTQsMS4wNi00LjY5LTAuODgtNi4xNFMxLjQ1LDc5LjYxLDAsODEuNTVjLTEuMTcsMS41Ni0xLjE3LDMuNzEsMCw1LjI2Ii8+JiN4YTsJCQk8L2c+JiN4YTsJCQk8ZyBpZD0ic2hhcGU1NzI2LTM0IiB0cmFuc2Zvcm09InRyYW5zbGF0ZSgyLjIzNSwtMzMuMjYyNSkiPiYjeGE7CQkJCTx0aXRsZSBpZD0idGl0bGU2Nzc3OSI+cGF0aDcwNjc8L3RpdGxlPiYjeGE7CQkJCTxwYXRoIGlkPSJwYXRoNjc3ODEiIGlua3NjYXBlOmNvbm5lY3Rvci1jdXJ2YXR1cmU9IjAiIHN0eWxlPSJmaWxsOiMwMDc4RDc7IiBkPSJNMCw4Ni44MWgzLjM2YzAuNS0zLjI5LDIuODMtNS41LDUuODYtNS41aDQuMTkgICAgICB2LTMuMjRIOS4yMkM0LjUsNzguMDcsMC42Myw4MS45OSwwLDg2LjgxeiIvPiYjeGE7CQkJPC9nPiYjeGE7CQkJPGcgaWQ9InNoYXBlNTcyNy0zNiIgdHJhbnNmb3JtPSJ0cmFuc2xhdGUoMTEuMjM1LC0xNS43NSkiPiYjeGE7CQkJCTx0aXRsZSBpZD0idGl0bGU2Nzc4NCI+cGF0aDcwNjk8L3RpdGxlPiYjeGE7CQkJCTxwYXRoIGlkPSJwYXRoNjc3ODYiIGlua3NjYXBlOmNvbm5lY3Rvci1jdXJ2YXR1cmU9IjAiIHN0eWxlPSJmaWxsOiM3MzczNzM7IiBkPSJNMCw1OS44MVY4MS45YzAuMDgsMi43OCwyLjM4LDQuOTcsNS4xNiw0LjkxICAgICAgaDI0LjkzYzIuNzgsMC4wNiw1LjA4LTIuMTMsNS4xNi00LjkxVjU5LjgxSDB6Ii8+JiN4YTsJCQk8L2c+JiN4YTsJCTwvZz4mI3hhOwkJPGcgaWQ9InNoYXBlNTcyOC0zOCIgdHJhbnNmb3JtPSJ0cmFuc2xhdGUoMTUuODQ3NSwtNjQuOTY1KSI+JiN4YTsJCQk8dGl0bGUgaWQ9InRpdGxlNjc3OTAiPnBhdGg3MDk3PC90aXRsZT4mI3hhOwkJCTxwYXRoIGlkPSJwYXRoNjc3OTIiIGlua3NjYXBlOmNvbm5lY3Rvci1jdXJ2YXR1cmU9IjAiIHN0eWxlPSJmaWxsOm5vbmU7IiBkPSJNNC45MSw4Ni44MWMtNS40MS00LjA1LTYuNTItMTEuNzItMi40Ny0xNy4xMyAgICAgYzAuNy0wLjk0LDEuNTMtMS43NywyLjQ3LTIuNDdWODYuODF6Ii8+JiN4YTsJCQkmI3hhOwkJCQk8cGF0aCBpZD0icGF0aDY3Nzk0IiBpbmtzY2FwZTpjb25uZWN0b3ItY3VydmF0dXJlPSIwIiBzdHlsZT0iZmlsbDpub25lO3N0cm9rZTojMDA3OEQ3O3N0cm9rZS13aWR0aDoxLjU7c3Ryb2tlLW1pdGVybGltaXQ6MzsiIGQ9IiAgICAgTTQuOTEsODYuODFjLTUuNDEtNC4wNS02LjUyLTExLjcyLTIuNDctMTcuMTNjMC43LTAuOTQsMS41My0xLjc3LDIuNDctMi40NyIvPiYjeGE7CQk8L2c+JiN4YTsJCTxnIGlkPSJzaGFwZTU3MjktNDEiIHRyYW5zZm9ybT0idHJhbnNsYXRlKDM1LjQ1MjUsLTY0Ljk1NzUpIj4mI3hhOwkJCTx0aXRsZSBpZD0idGl0bGU2Nzc5NyI+cGF0aDcwOTk8L3RpdGxlPiYjeGE7CQkJPHBhdGggaWQ9InBhdGg2Nzc5OSIgaW5rc2NhcGU6Y29ubmVjdG9yLWN1cnZhdHVyZT0iMCIgc3R5bGU9ImZpbGw6bm9uZTsiIGQ9Ik0wLDY3LjIxYzUuNDEsNC4wNSw2LjUyLDExLjcyLDIuNDcsMTcuMTMgICAgIGMtMC43LDAuOTQtMS41MywxLjc3LTIuNDcsMi40N1Y2Ny4yMXoiLz4mI3hhOwkJCSYjeGE7CQkJCTxwYXRoIGlkPSJwYXRoNjc4MDEiIGlua3NjYXBlOmNvbm5lY3Rvci1jdXJ2YXR1cmU9IjAiIHN0eWxlPSJmaWxsOm5vbmU7c3Ryb2tlOiMwMDc4RDc7c3Ryb2tlLXdpZHRoOjEuNTtzdHJva2UtbWl0ZXJsaW1pdDozOyIgZD0iICAgICBNMCw2Ny4yMWM1LjQxLDQuMDUsNi41MiwxMS43MiwyLjQ3LDE3LjEzYy0wLjcsMC45NC0xLjUzLDEuNzctMi40NywyLjQ3Ii8+JiN4YTsJCTwvZz4mI3hhOwkJPGcgaWQ9InNoYXBlNTczMC00NCIgdHJhbnNmb3JtPSJ0cmFuc2xhdGUoMzIuMTksLTY4LjE3NSkiPiYjeGE7CQkJPHRpdGxlIGlkPSJ0aXRsZTY3ODA0Ij5wYXRoNzEwMTwvdGl0bGU+JiN4YTsJCQk8cGF0aCBpZD0icGF0aDY3ODA2IiBpbmtzY2FwZTpjb25uZWN0b3ItY3VydmF0dXJlPSIwIiBzdHlsZT0iZmlsbDpub25lOyIgZD0iTTAsODYuODFjMy42NC0xLjgsNS4xMi02LjIxLDMuMzItOS44NSAgICAgQzIuNjEsNzUuNTIsMS40NCw3NC4zNSwwLDczLjY0Vjg2LjgxeiIvPiYjeGE7CQkJJiN4YTsJCQkJPHBhdGggaWQ9InBhdGg2NzgwOCIgaW5rc2NhcGU6Y29ubmVjdG9yLWN1cnZhdHVyZT0iMCIgc3R5bGU9ImZpbGw6bm9uZTtzdHJva2U6IzAwNzhENztzdHJva2Utd2lkdGg6MS41O3N0cm9rZS1taXRlcmxpbWl0OjM7IiBkPSIgICAgIE0wLDg2LjgxYzMuNjQtMS44LDUuMTItNi4yMSwzLjMyLTkuODVDMi42MSw3NS41MiwxLjQ0LDc0LjM1LDAsNzMuNjQiLz4mI3hhOwkJPC9nPiYjeGE7CQk8ZyBpZD0ic2hhcGU1NzMxLTQ3IiB0cmFuc2Zvcm09InRyYW5zbGF0ZSgxOS45Mzc1LC02OC4xNzUpIj4mI3hhOwkJCTx0aXRsZSBpZD0idGl0bGU2NzgxMSI+cGF0aDcxMDM8L3RpdGxlPiYjeGE7CQkJPHBhdGggaWQ9InBhdGg2NzgxMyIgaW5rc2NhcGU6Y29ubmVjdG9yLWN1cnZhdHVyZT0iMCIgc3R5bGU9ImZpbGw6bm9uZTsiIGQ9Ik00LjA4LDczLjY0Yy0zLjY0LDEuOC01LjEyLDYuMjEtMy4zMiw5Ljg1ICAgICBjMC43MSwxLjQ0LDEuODgsMi42MSwzLjMyLDMuMzJWNzMuNjR6Ii8+JiN4YTsJCQkmI3hhOwkJCQk8cGF0aCBpZD0icGF0aDY3ODE1IiBpbmtzY2FwZTpjb25uZWN0b3ItY3VydmF0dXJlPSIwIiBzdHlsZT0iZmlsbDpub25lO3N0cm9rZTojMDA3OEQ3O3N0cm9rZS13aWR0aDoxLjU7c3Ryb2tlLW1pdGVybGltaXQ6MzsiIGQ9IiAgICAgTTQuMDgsNzMuNjRjLTMuNjQsMS44LTUuMTIsNi4yMS0zLjMyLDkuODVjMC43MSwxLjQ0LDEuODgsMi42MSwzLjMyLDMuMzIiLz4mI3hhOwkJPC9nPiYjeGE7CQk8ZyBpZD0iZ3JvdXA1NzMyLTUwIiB0cmFuc2Zvcm09InRyYW5zbGF0ZSgyMy4yMzUsLTI3LjM5KSI+JiN4YTsJCQk8dGl0bGUgaWQ9InRpdGxlNjc4MTgiPmc3MTA5PC90aXRsZT4mI3hhOwkJCTxnIGlkPSJzaGFwZTU3MzMtNTEiIHRyYW5zZm9ybT0idHJhbnNsYXRlKDAsLTAuMDY4ODg1NikiPiYjeGE7CQkJCTx0aXRsZSBpZD0idGl0bGU2NzgyMCI+cGF0aDcxMDU8L3RpdGxlPiYjeGE7CQkJCSYjeGE7CQkJCQk8cGF0aCBpZD0icGF0aDY3ODIyIiBpbmtzY2FwZTpjb25uZWN0b3ItY3VydmF0dXJlPSIwIiBzdHlsZT0iZmlsbDojRTZFNkU2O3N0cm9rZTojNzM3MzczO3N0cm9rZS13aWR0aDoxLjU7c3Ryb2tlLW1pdGVybGltaXQ6MzsiIGQ9IiAgICAgIE0wLDgyLjc3YzAsMy4xNiwyLjU1LDUuNzIsNS43MSw1LjcyYzMuMTYsMCw1LjcyLTIuNTUsNS43Mi01LjcxYzAtMy4xNi0yLjU1LTUuNzItNS43MS01LjcyYzAsMC0wLjAxLDAtMC4wMSwwICAgICAgQzIuNTYsNzcuMDcsMC4wMSw3OS42MiwwLDgyLjc3eiIvPiYjeGE7CQkJPC9nPiYjeGE7CQkJPGcgaWQ9InNoYXBlNTczNC01MyIgdHJhbnNmb3JtPSJ0cmFuc2xhdGUoMS42MDUpIj4mI3hhOwkJCQk8dGl0bGUgaWQ9InRpdGxlNjc4MjUiPmNpcmNsZTcxMDc8L3RpdGxlPiYjeGE7CQkJCTxjaXJjbGUgaWQ9ImVsbGlwc2U2NzgyNyIgc3R5bGU9ImZpbGw6I0ZGRkZGRjsiIGN4PSI0LjA4IiBjeT0iODIuNzMiIHI9IjQuMDgiLz4mI3hhOwkJCTwvZz4mI3hhOwkJPC9nPiYjeGE7CTwvZz4mI3hhOzwvZz4mI3hhOzwvc3ZnPg==;fontSize=10;" parent="1" vertex="1">
          <mxGeometry x="499" y="193.5" width="34" height="47" as="geometry"/>
        </mxCell>
        <mxCell id="KyXaF-SN7KRc0o7MAkgT-15" value="CoE &amp;amp; Dev Community" style="text;html=1;strokeColor=none;fillColor=none;align=center;verticalAlign=middle;whiteSpace=wrap;rounded=0;" parent="1" vertex="1">
          <mxGeometry x="556" y="154" width="64" height="20" as="geometry"/>
        </mxCell>
        <mxCell id="KyXaF-SN7KRc0o7MAkgT-16" value="Automation" style="text;html=1;strokeColor=none;fillColor=none;align=center;verticalAlign=middle;whiteSpace=wrap;rounded=0;" parent="1" vertex="1">
          <mxGeometry x="556" y="210.5" width="64" height="20" as="geometry"/>
        </mxCell>
        <mxCell id="KyXaF-SN7KRc0o7MAkgT-56" style="rounded=0;orthogonalLoop=1;jettySize=auto;html=1;exitX=1;exitY=0.5;exitDx=0;exitDy=0;entryX=0;entryY=0.5;entryDx=0;entryDy=0;fontSize=10;fontColor=#000000;strokeColor=#CC0000;" parent="1" source="KyXaF-SN7KRc0o7MAkgT-18" target="KyXaF-SN7KRc0o7MAkgT-26" edge="1">
          <mxGeometry relative="1" as="geometry">
            <mxPoint x="575" y="361.5" as="sourcePoint"/>
            <mxPoint x="629.44" y="360.1200000000001" as="targetPoint"/>
          </mxGeometry>
        </mxCell>
        <mxCell id="KyXaF-SN7KRc0o7MAkgT-18" value="" style="rounded=0;whiteSpace=wrap;html=1;fontSize=10;" parent="1" vertex="1">
          <mxGeometry x="435" y="302.5" width="140" height="122" as="geometry"/>
        </mxCell>
        <mxCell id="KyXaF-SN7KRc0o7MAkgT-19" value="&lt;font style=&quot;font-size: 10px&quot;&gt;Incident response team&lt;/font&gt;" style="text;html=1;strokeColor=none;fillColor=none;align=center;verticalAlign=middle;whiteSpace=wrap;rounded=0;" parent="1" vertex="1">
          <mxGeometry x="482" y="313.5" width="90" height="20" as="geometry"/>
        </mxCell>
        <mxCell id="KyXaF-SN7KRc0o7MAkgT-21" value="" style="shape=image;html=1;verticalAlign=top;verticalLabelPosition=bottom;labelBackgroundColor=#ffffff;imageAspect=0;aspect=fixed;image=https://cdn1.iconfinder.com/data/icons/user-avatar-20/64/16-Engineer-128.png;fontSize=10;" parent="1" vertex="1">
          <mxGeometry x="446" y="339" width="35" height="35" as="geometry"/>
        </mxCell>
        <mxCell id="KyXaF-SN7KRc0o7MAkgT-22" value="" style="shape=image;html=1;verticalAlign=top;verticalLabelPosition=bottom;labelBackgroundColor=#ffffff;imageAspect=0;aspect=fixed;image=https://cdn1.iconfinder.com/data/icons/user-avatar-20/64/16-Engineer-128.png;fontSize=10;" parent="1" vertex="1">
          <mxGeometry x="447" y="378" width="36" height="36" as="geometry"/>
        </mxCell>
        <mxCell id="KyXaF-SN7KRc0o7MAkgT-23" value="&lt;font style=&quot;font-size: 10px&quot;&gt;L2 engineer&lt;/font&gt;" style="text;html=1;strokeColor=none;fillColor=none;align=center;verticalAlign=middle;whiteSpace=wrap;rounded=0;" parent="1" vertex="1">
          <mxGeometry x="472" y="356" width="96" height="15" as="geometry"/>
        </mxCell>
        <mxCell id="KyXaF-SN7KRc0o7MAkgT-24" value="&lt;font style=&quot;font-size: 10px&quot;&gt;L2 engineer&lt;/font&gt;" style="text;html=1;strokeColor=none;fillColor=none;align=center;verticalAlign=middle;whiteSpace=wrap;rounded=0;" parent="1" vertex="1">
          <mxGeometry x="478.5" y="391.5" width="78" height="15" as="geometry"/>
        </mxCell>
        <mxCell id="KyXaF-SN7KRc0o7MAkgT-25" value="" style="shape=image;html=1;verticalAlign=top;verticalLabelPosition=bottom;labelBackgroundColor=#ffffff;imageAspect=0;aspect=fixed;image=https://cdn1.iconfinder.com/data/icons/project-management-8/500/crew-128.png;fontSize=10;" parent="1" vertex="1">
          <mxGeometry x="446.5" y="299" width="36" height="36" as="geometry"/>
        </mxCell>
        <mxCell id="KyXaF-SN7KRc0o7MAkgT-26" value="" style="rounded=0;whiteSpace=wrap;html=1;fontSize=10;" parent="1" vertex="1">
          <mxGeometry x="667" y="303" width="140" height="122" as="geometry"/>
        </mxCell>
        <mxCell id="KyXaF-SN7KRc0o7MAkgT-27" value="&lt;font style=&quot;font-size: 10px&quot;&gt;Team Lead&lt;/font&gt;" style="text;html=1;strokeColor=none;fillColor=none;align=center;verticalAlign=middle;whiteSpace=wrap;rounded=0;" parent="1" vertex="1">
          <mxGeometry x="711" y="322.5" width="90" height="20" as="geometry"/>
        </mxCell>
        <mxCell id="KyXaF-SN7KRc0o7MAkgT-28" value="" style="shape=image;html=1;verticalAlign=top;verticalLabelPosition=bottom;labelBackgroundColor=#ffffff;imageAspect=0;aspect=fixed;image=https://cdn1.iconfinder.com/data/icons/user-avatar-20/64/16-Engineer-128.png;fontSize=10;" parent="1" vertex="1">
          <mxGeometry x="678.5" y="347.5" width="31" height="31" as="geometry"/>
        </mxCell>
        <mxCell id="KyXaF-SN7KRc0o7MAkgT-29" value="" style="shape=image;html=1;verticalAlign=top;verticalLabelPosition=bottom;labelBackgroundColor=#ffffff;imageAspect=0;aspect=fixed;image=https://cdn1.iconfinder.com/data/icons/user-avatar-20/64/16-Engineer-128.png;fontSize=10;" parent="1" vertex="1">
          <mxGeometry x="675" y="383" width="36" height="36" as="geometry"/>
        </mxCell>
        <mxCell id="KyXaF-SN7KRc0o7MAkgT-30" value="&lt;font style=&quot;font-size: 10px&quot;&gt;Developer&lt;/font&gt;" style="text;html=1;strokeColor=none;fillColor=none;align=center;verticalAlign=middle;whiteSpace=wrap;rounded=0;" parent="1" vertex="1">
          <mxGeometry x="714" y="359.5" width="80" height="15" as="geometry"/>
        </mxCell>
        <mxCell id="KyXaF-SN7KRc0o7MAkgT-39" value="Alert notification system" style="text;html=1;strokeColor=none;fillColor=none;align=center;verticalAlign=middle;whiteSpace=wrap;rounded=0;fontSize=10;fontStyle=1" parent="1" vertex="1">
          <mxGeometry x="210" y="268" width="125" height="17" as="geometry"/>
        </mxCell>
        <mxCell id="KyXaF-SN7KRc0o7MAkgT-45" style="edgeStyle=orthogonalEdgeStyle;rounded=0;orthogonalLoop=1;jettySize=auto;html=1;exitX=0.5;exitY=0;exitDx=0;exitDy=0;entryX=0;entryY=0.5;entryDx=0;entryDy=0;fontSize=10;" parent="1" source="KyXaF-SN7KRc0o7MAkgT-50" target="j1X4c3lry06MQMG_WzWm-47" edge="1">
          <mxGeometry relative="1" as="geometry"/>
        </mxCell>
        <mxCell id="KyXaF-SN7KRc0o7MAkgT-43" value="&lt;b&gt;Infosys L2 Support Team&lt;/b&gt;" style="text;html=1;strokeColor=none;fillColor=none;align=center;verticalAlign=middle;whiteSpace=wrap;rounded=0;" parent="1" vertex="1">
          <mxGeometry x="448" y="271.5" width="130" height="20" as="geometry"/>
        </mxCell>
        <mxCell id="KyXaF-SN7KRc0o7MAkgT-17" value="" style="shape=image;verticalLabelPosition=bottom;labelBackgroundColor=#ffffff;verticalAlign=top;aspect=fixed;imageAspect=0;image=data:image/svg+xml,PHN2ZyB4bWxuczpjYz0iaHR0cDovL2NyZWF0aXZlY29tbW9ucy5vcmcvbnMjIiB4bWxuczpkYz0iaHR0cDovL3B1cmwub3JnL2RjL2VsZW1lbnRzLzEuMS8iIHhtbG5zOmlua3NjYXBlPSJodHRwOi8vd3d3Lmlua3NjYXBlLm9yZy9uYW1lc3BhY2VzL2lua3NjYXBlIiB4bWxuczpyZGY9Imh0dHA6Ly93d3cudzMub3JnLzE5OTkvMDIvMjItcmRmLXN5bnRheC1ucyMiIHhtbG5zOnNvZGlwb2RpPSJodHRwOi8vc29kaXBvZGkuc291cmNlZm9yZ2UubmV0L0RURC9zb2RpcG9kaS0wLmR0ZCIgeG1sbnM6c3ZnPSJodHRwOi8vd3d3LnczLm9yZy8yMDAwL3N2ZyIgeG1sbnM9Imh0dHA6Ly93d3cudzMub3JnLzIwMDAvc3ZnIiB4bWxuczp4bGluaz0iaHR0cDovL3d3dy53My5vcmcvMTk5OS94bGluayIgdmVyc2lvbj0iMS4xIiBpZD0ic3ZnMTUxMDczIiBpbmtzY2FwZTp2ZXJzaW9uPSIwLjkyLjMgKDI0MDU1NDYsIDIwMTgtMDMtMTEpIiBzb2RpcG9kaTpkb2NuYW1lPSJkZXZlbG9wZXJfMi5zdmciIHg9IjBweCIgeT0iMHB4IiB2aWV3Qm94PSIwIDAgMzEuMDIgNTUuOTEiIHN0eWxlPSJlbmFibGUtYmFja2dyb3VuZDpuZXcgMCAwIDMxLjAyIDU1LjkxOyIgeG1sOnNwYWNlPSJwcmVzZXJ2ZSI+JiN4YTs8c29kaXBvZGk6bmFtZWR2aWV3IGJvcmRlcmNvbG9yPSIjNjY2NjY2IiBib3JkZXJvcGFjaXR5PSIxIiBmaXQtbWFyZ2luLWJvdHRvbT0iMCIgZml0LW1hcmdpbi1sZWZ0PSIwIiBmaXQtbWFyZ2luLXJpZ2h0PSIwIiBmaXQtbWFyZ2luLXRvcD0iMCIgZ3JpZHRvbGVyYW5jZT0iMTAiIGd1aWRldG9sZXJhbmNlPSIxMCIgaWQ9Im5hbWVkdmlldzE1MTA3NSIgaW5rc2NhcGU6Y3VycmVudC1sYXllcj0ic3ZnMTUxMDczIiBpbmtzY2FwZTpjeD0iMjAuNjgwMTYiIGlua3NjYXBlOmN5PSIzNy4yNzI5NDkiIGlua3NjYXBlOnBhZ2VvcGFjaXR5PSIwIiBpbmtzY2FwZTpwYWdlc2hhZG93PSIyIiBpbmtzY2FwZTp3aW5kb3ctaGVpZ2h0PSIxMDE3IiBpbmtzY2FwZTp3aW5kb3ctbWF4aW1pemVkPSIxIiBpbmtzY2FwZTp3aW5kb3ctd2lkdGg9IjE5MjAiIGlua3NjYXBlOndpbmRvdy14PSItOCIgaW5rc2NhcGU6d2luZG93LXk9Ii04IiBpbmtzY2FwZTp6b29tPSI5LjU0MTM4IiBvYmplY3R0b2xlcmFuY2U9IjEwIiBwYWdlY29sb3I9IiNmZmZmZmYiIHNob3dncmlkPSJmYWxzZSI+JiN4YTsJPC9zb2RpcG9kaTpuYW1lZHZpZXc+JiN4YTs8ZyBpZD0iZzE1MTA3MSIgdHJhbnNmb3JtPSJ0cmFuc2xhdGUoLTYuMTIzMDA5MiwtNi4xMTc2NTMyKSI+JiN4YTsJPHRpdGxlIGlkPSJ0aXRsZTE1MDg1MiI+UGFnZS0xPC90aXRsZT4mI3hhOwk8ZyBpZD0iZ3JvdXA0MjItMSIgdHJhbnNmb3JtPSJ0cmFuc2xhdGUoNi4wNjc0NywtNi4xMikiPiYjeGE7CQk8dGl0bGUgaWQ9InRpdGxlMTUwODU0Ij5EZXZlbG9wZXIgIzI8L3RpdGxlPiYjeGE7CQk8ZyBpZD0ic2hhcGU0MjMtMiIgdHJhbnNmb3JtPSJ0cmFuc2xhdGUoMTIuNzgxNCwtMi4yOTQxKSI+JiN4YTsJCQk8dGl0bGUgaWQ9InRpdGxlMTUwODU2Ij5TaGVldC40MjM8L3RpdGxlPiYjeGE7CQkJPHBhdGggaWQ9InBhdGgxNTA4NTgiIGlua3NjYXBlOmNvbm5lY3Rvci1jdXJ2YXR1cmU9IjAiIHN0eWxlPSJmaWxsOiMzODM4Mzg7IiBkPSJNMi4xLDY1LjMzbC0wLjItMS43TDAsNDQuNDJoMTIuNDVsLTEuOSwxOS4yMSAgICAgbC0wLjE5LDEuN2wtMC4yLDEuNzFsMS4xMSwxLjExSDYuNzV2LTIuODJ2LTEuN3YtMTUuOGMwLTAuMzMtMC4yNi0wLjU5LTAuNTktMC41OXMtMC41OSwwLjI2LTAuNTksMC41OXYxNS44djEuN3YyLjgySDEuMDUgICAgIGwxLjExLTEuMTFMMi4xLDY1LjMzeiIvPiYjeGE7CQk8L2c+JiN4YTsJCTxnIGlkPSJzaGFwZTQyNC00IiB0cmFuc2Zvcm09InRyYW5zbGF0ZSgxOS41OTgyLC0wLjUyNDM2NikiPiYjeGE7CQkJPHRpdGxlIGlkPSJ0aXRsZTE1MDg2MSI+U2hlZXQuNDI0PC90aXRsZT4mI3hhOwkJCTxwYXRoIGlkPSJwYXRoMTUwODYzIiBpbmtzY2FwZTpjb25uZWN0b3ItY3VydmF0dXJlPSIwIiBzdHlsZT0iZmlsbDojMUYxRjFGOyIgZD0iTTUuNTcsNjcuNTZjMC0wLjY1LTAuNTItMS4xMS0xLjExLTEuMTEgICAgIGwtMS4xMi0xLjEybDAuNTktNS42M0gwdjguNDVoNS42NHYtMC41OUw1LjU3LDY3LjU2eiIvPiYjeGE7CQk8L2c+JiN4YTsJCTxnIGlkPSJzaGFwZTQyNS02IiB0cmFuc2Zvcm09InRyYW5zbGF0ZSgxOS41MzI2KSI+JiN4YTsJCQk8dGl0bGUgaWQ9InRpdGxlMTUwODY2Ij5TaGVldC40MjU8L3RpdGxlPiYjeGE7CQkJPHBhdGggaWQ9InBhdGgxNTA4NjgiIGlua3NjYXBlOmNvbm5lY3Rvci1jdXJ2YXR1cmU9IjAiIHN0eWxlPSJmaWxsOiMzODM4Mzg7IiBkPSJNNS42NCw2Ny41NnYwLjU5SDIuMjlMMS43LDY3LjU2djAuNTlIMHYtMC41OSAgICAgSDUuNjR6Ii8+JiN4YTsJCTwvZz4mI3hhOwkJPGcgaWQ9InNoYXBlNDI2LTgiIHRyYW5zZm9ybT0idHJhbnNsYXRlKDEyLjcxNTksLTAuNTI0MzY2KSI+JiN4YTsJCQk8dGl0bGUgaWQ9InRpdGxlMTUwODcxIj5TaGVldC40MjY8L3RpdGxlPiYjeGE7CQkJPHBhdGggaWQ9InBhdGgxNTA4NzMiIGlua3NjYXBlOmNvbm5lY3Rvci1jdXJ2YXR1cmU9IjAiIHN0eWxlPSJmaWxsOiMxRjFGMUY7IiBkPSJNMC4wNyw2Ny41NmMwLTAuNjUsMC41Mi0xLjExLDEuMTEtMS4xMSAgICAgbDEuMTEtMS4xMkwxLjcsNTkuN2gzLjk0djguNDVIMHYtMC41OUwwLjA3LDY3LjU2eiIvPiYjeGE7CQk8L2c+JiN4YTsJCTxnIGlkPSJzaGFwZTQyNy0xMCIgdHJhbnNmb3JtPSJ0cmFuc2xhdGUoMTIuNzgxNCkiPiYjeGE7CQkJPHRpdGxlIGlkPSJ0aXRsZTE1MDg3NiI+U2hlZXQuNDI3PC90aXRsZT4mI3hhOwkJCTxwYXRoIGlkPSJwYXRoMTUwODc4IiBpbmtzY2FwZTpjb25uZWN0b3ItY3VydmF0dXJlPSIwIiBzdHlsZT0iZmlsbDojMzgzODM4OyIgZD0iTTAsNjcuNTZ2MC41OWgzLjQxbDAuNTItMC41OXYwLjU5aDEuNzF2LTAuNTkgICAgIEgweiIvPiYjeGE7CQk8L2c+JiN4YTsJCTxnIGlkPSJzaGFwZTQyOC0xMiIgdHJhbnNmb3JtPSJ0cmFuc2xhdGUoMTMuMzA1OCwtNDMuNTIyNCkiPiYjeGE7CQkJPHRpdGxlIGlkPSJ0aXRsZTE1MDg4MSI+U2hlZXQuNDI4PC90aXRsZT4mI3hhOwkJCTxwYXRoIGlkPSJwYXRoMTUwODgzIiBpbmtzY2FwZTpjb25uZWN0b3ItY3VydmF0dXJlPSIwIiBzdHlsZT0iZmlsbDojMzgzODM4OyIgZD0iTTAsNjEuNGMwLTMuMTUsMi41Ni01LjY0LDUuNjQtNS42NCAgICAgczUuNjMsMi41Niw1LjYzLDUuNjR2Ni43NUgwVjYxLjR6Ii8+JiN4YTsJCTwvZz4mI3hhOwkJPGcgaWQ9InNoYXBlNDI5LTE0IiB0cmFuc2Zvcm09InRyYW5zbGF0ZSgxMy44OTU3LC00NC41NzExKSI+JiN4YTsJCQk8dGl0bGUgaWQ9InRpdGxlMTUwODg2Ij5TaGVldC40Mjk8L3RpdGxlPiYjeGE7CQkJPHBhdGggaWQ9InBhdGgxNTA4ODgiIGlua3NjYXBlOmNvbm5lY3Rvci1jdXJ2YXR1cmU9IjAiIHN0eWxlPSJmaWxsOiNCQjkxNjc7IiBkPSJNMCw2My4wNGMyLjgyLDAsNS4xMS0yLjMsNS4xMS01LjExICAgICBjMCwyLjgxLDIuMyw1LjExLDUuMTIsNS4xMWMwLDIuODItMi4zLDUuMTEtNS4xMiw1LjExUzAsNjUuODYsMCw2My4wNHoiLz4mI3hhOwkJPC9nPiYjeGE7CQk8ZyBpZD0ic2hhcGU0MzAtMTYiIHRyYW5zZm9ybT0idHJhbnNsYXRlKDguNjUyMDMsLTMxLjA2ODcpIj4mI3hhOwkJCTx0aXRsZSBpZD0idGl0bGUxNTA4OTEiPlNoZWV0LjQzMDwvdGl0bGU+JiN4YTsJCQk8cGF0aCBpZD0icGF0aDE1MDg5MyIgaW5rc2NhcGU6Y29ubmVjdG9yLWN1cnZhdHVyZT0iMCIgc3R5bGU9ImZpbGw6I0E4QThBODsiIGQ9Ik0xLjg0LDY4LjE1Yy0wLjE0LDAtMC4yNywwLTAuNC0wLjA3ICAgICBDMC41Miw2Ny44OSwwLDY2Ljk3LDAuMiw2Ni4wNWwyLjIzLTkuMDRjMC4xOS0wLjkyLDEuMTEtMS40NCwyLjAzLTEuMjVjMC45MSwwLjIsMS40NCwxLjEyLDEuMjQsMi4wM2wtMi4yMyw5LjA1ICAgICBDMy4zNCw2Ny42MywyLjYyLDY4LjE1LDEuODQsNjguMTV6Ii8+JiN4YTsJCTwvZz4mI3hhOwkJPGcgaWQ9InNoYXBlNDMxLTE4IiB0cmFuc2Zvcm09InRyYW5zbGF0ZSgyNC42MjEzLC0yOS4yNzM1KSI+JiN4YTsJCQk8dGl0bGUgaWQ9InRpdGxlMTUwODk2Ij5TaGVldC40MzE8L3RpdGxlPiYjeGE7CQkJPHBhdGggaWQ9InBhdGgxNTA4OTgiIGlua3NjYXBlOmNvbm5lY3Rvci1jdXJ2YXR1cmU9IjAiIHN0eWxlPSJmaWxsOiNBOEE4QTg7IiBkPSJNMS45Nyw2OC4xNWMtMC4yNywwLTAuNTMtMC4wNy0wLjc5LTAuMiAgICAgQzAuMzMsNjcuNTYsMCw2Ni41MSwwLjM5LDY1LjY2bDIuODItNS42NGMwLjQtMC44NSwxLjQ0LTEuMTgsMi4zLTAuNzhjMC44NSwwLjM5LDEuMTgsMS40NCwwLjc4LDIuMjlsLTIuODIsNS42NCAgICAgQzMuMTUsNjcuODIsMi41Niw2OC4xNSwxLjk3LDY4LjE1eiIvPiYjeGE7CQk8L2c+JiN4YTsJCTxnIGlkPSJzaGFwZTQzMi0yMCIgdHJhbnNmb3JtPSJ0cmFuc2xhdGUoMjIuOTY1OCwtMzUuNTQ1MSkiPiYjeGE7CQkJPHRpdGxlIGlkPSJ0aXRsZTE1MDkwMSI+U2hlZXQuNDMyPC90aXRsZT4mI3hhOwkJCTxwYXRoIGlkPSJwYXRoMTUwOTAzIiBpbmtzY2FwZTpjb25uZWN0b3ItY3VydmF0dXJlPSIwIiBzdHlsZT0iZmlsbDojQThBOEE4OyIgZD0iTTYuMzYsNjguMTVjLTAuNDYsMC0wLjg1LTAuMi0xLjE4LTAuNTIgICAgIEwwLjY2LDYzLjFDMCw2Mi40NSwwLDYxLjQsMC42Niw2MC42OGMwLjY1LTAuNjYsMS43LTAuNjYsMi40MiwwTDcuNiw2NS4yYzAuNjYsMC42NiwwLjY2LDEuNzEsMCwyLjQzICAgICBDNy4yOCw2OC4wMiw2LjgyLDY4LjE1LDYuMzYsNjguMTV6Ii8+JiN4YTsJCTwvZz4mI3hhOwkJPGcgaWQ9InNoYXBlNDMzLTIyIiB0cmFuc2Zvcm09InRyYW5zbGF0ZSgyMC42NDY5LC00OC41Njk0KSI+JiN4YTsJCQk8dGl0bGUgaWQ9InRpdGxlMTUwOTA2Ij5TaGVldC40MzM8L3RpdGxlPiYjeGE7CQkJPHBhdGggaWQ9InBhdGgxNTA5MDgiIGlua3NjYXBlOmNvbm5lY3Rvci1jdXJ2YXR1cmU9IjAiIHN0eWxlPSJmaWxsOiMxRjFGMUY7IiBkPSJNMCw2Ny4wNGMwLTAuMzMsMC4yNi0wLjU5LDAuNTktMC41OSAgICAgczAuNTksMC4yNiwwLjU5LDAuNTl2MC41MmMwLDAuMzMtMC4yNiwwLjU5LTAuNTksMC41OUMwLjI2LDY4LjE1LDAsNjcuODksMCw2Ny41NlY2Ny4wNHoiLz4mI3hhOwkJPC9nPiYjeGE7CQk8ZyBpZD0ic2hhcGU0MzQtMjQiIHRyYW5zZm9ybT0idHJhbnNsYXRlKDE2LjE4OTgsLTQ4LjU2OTQpIj4mI3hhOwkJCTx0aXRsZSBpZD0idGl0bGUxNTA5MTEiPlNoZWV0LjQzNDwvdGl0bGU+JiN4YTsJCQk8cGF0aCBpZD0icGF0aDE1MDkxMyIgaW5rc2NhcGU6Y29ubmVjdG9yLWN1cnZhdHVyZT0iMCIgc3R5bGU9ImZpbGw6IzFGMUYxRjsiIGQ9Ik0wLDY3LjA0YzAtMC4zMywwLjI2LTAuNTksMC41OS0wLjU5ICAgICBzMC41OSwwLjI2LDAuNTksMC41OXYwLjUyYzAsMC4zMy0wLjI2LDAuNTktMC41OSwwLjU5QzAuMjYsNjguMTUsMCw2Ny44OSwwLDY3LjU2VjY3LjA0eiIvPiYjeGE7CQk8L2c+JiN4YTsJCTxnIGlkPSJzaGFwZTQzNS0yNiIgdHJhbnNmb3JtPSJ0cmFuc2xhdGUoMTguMzUyOCwtNDcuOTc5NSkiPiYjeGE7CQkJPHRpdGxlIGlkPSJ0aXRsZTE1MDkxNiI+U2hlZXQuNDM1PC90aXRsZT4mI3hhOwkJCTxwYXRoIGlkPSJwYXRoMTUwOTE4IiBpbmtzY2FwZTpjb25uZWN0b3ItY3VydmF0dXJlPSIwIiBzdHlsZT0iZmlsbDojOTk3NzU4OyIgZD0iTTEuMTgsNjcuNTZjMCwwLjMzLTAuMjYsMC41OS0wLjU5LDAuNTkgICAgIEMwLjI2LDY4LjE1LDAsNjcuODksMCw2Ny41NkgxLjE4eiIvPiYjeGE7CQkJPHBhdGggaWQ9InBhdGgxNTA5MjAiIGlua3NjYXBlOmNvbm5lY3Rvci1jdXJ2YXR1cmU9IjAiIHN0eWxlPSJmaWxsOm5vbmU7IiBkPSJNMS4xOCw2Ny41NmMwLDAuMzMtMC4yNiwwLjU5LTAuNTksMC41OSAgICAgQzAuMjYsNjguMTUsMCw2Ny44OSwwLDY3LjU2Ii8+JiN4YTsJCTwvZz4mI3hhOwkJPGcgaWQ9InNoYXBlNDM2LTI5IiB0cmFuc2Zvcm09InRyYW5zbGF0ZSgxOC4xNTYyLC00Ni4wMTMxKSI+JiN4YTsJCQk8dGl0bGUgaWQ9InRpdGxlMTUwOTIzIj5TaGVldC40MzY8L3RpdGxlPiYjeGE7CQkJPHBhdGggaWQ9InBhdGgxNTA5MjUiIGlua3NjYXBlOmNvbm5lY3Rvci1jdXJ2YXR1cmU9IjAiIHN0eWxlPSJmaWxsOiNGRkZGRkY7IiBkPSJNMS43LDY3LjNjMCwwLjQ2LTAuMzksMC44NS0wLjg1LDAuODUgICAgIFMwLDY3Ljc2LDAsNjcuM0gxLjd6Ii8+JiN4YTsJCQk8cGF0aCBpZD0icGF0aDE1MDkyNyIgaW5rc2NhcGU6Y29ubmVjdG9yLWN1cnZhdHVyZT0iMCIgc3R5bGU9ImZpbGw6bm9uZTsiIGQ9Ik0xLjcsNjcuM2MwLDAuNDYtMC4zOSwwLjg1LTAuODUsMC44NSAgICAgUzAsNjcuNzYsMCw2Ny4zIi8+JiN4YTsJCTwvZz4mI3hhOwkJPGcgaWQ9InNoYXBlNDM3LTMyIiB0cmFuc2Zvcm09InRyYW5zbGF0ZSgxNS41OTk5LC00MC4zNzYyKSI+JiN4YTsJCQk8dGl0bGUgaWQ9InRpdGxlMTUwOTMwIj5TaGVldC40Mzc8L3RpdGxlPiYjeGE7CQkJPHBhdGggaWQ9InBhdGgxNTA5MzIiIGlua3NjYXBlOmNvbm5lY3Rvci1jdXJ2YXR1cmU9IjAiIHN0eWxlPSJmaWxsOiMwMEIyOTQ7IiBkPSJNNi4yMyw2NS4wN2MwLDEuNy0xLjM4LDMuMDgtMy4wOCwzLjA4ICAgICBDMS40NCw2OC4xNSwwLDY2Ljc3LDAsNjUuMDdINi4yM3oiLz4mI3hhOwkJCTxwYXRoIGlkPSJwYXRoMTUwOTM0IiBpbmtzY2FwZTpjb25uZWN0b3ItY3VydmF0dXJlPSIwIiBzdHlsZT0iZmlsbDpub25lOyIgZD0iTTYuMjMsNjUuMDdjMCwxLjctMS4zOCwzLjA4LTMuMDgsMy4wOCAgICAgQzEuNDQsNjguMTUsMCw2Ni43NywwLDY1LjA3Ii8+JiN4YTsJCTwvZz4mI3hhOwkJPGcgaWQ9InNoYXBlNDM4LTM1IiB0cmFuc2Zvcm09InRyYW5zbGF0ZSgxNi4xMjQyLC00MC45MDA1KSI+JiN4YTsJCQk8dGl0bGUgaWQ9InRpdGxlMTUwOTM3Ij5TaGVldC40Mzg8L3RpdGxlPiYjeGE7CQkJPHBhdGggaWQ9InBhdGgxNTA5MzkiIGlua3NjYXBlOmNvbm5lY3Rvci1jdXJ2YXR1cmU9IjAiIHN0eWxlPSJmaWxsOiNCQjkxNjc7IiBkPSJNNS4xMSw2NS41OWMwLDEuMzgtMS4xMSwyLjU2LTIuNTUsMi41NiAgICAgQzEuMTEsNjguMTUsMCw2Ny4wNCwwLDY1LjU5SDUuMTF6Ii8+JiN4YTsJCQk8cGF0aCBpZD0icGF0aDE1MDk0MSIgaW5rc2NhcGU6Y29ubmVjdG9yLWN1cnZhdHVyZT0iMCIgc3R5bGU9ImZpbGw6bm9uZTsiIGQ9Ik01LjExLDY1LjU5YzAsMS4zOC0xLjExLDIuNTYtMi41NSwyLjU2ICAgICBDMS4xMSw2OC4xNSwwLDY3LjA0LDAsNjUuNTkiLz4mI3hhOwkJPC9nPiYjeGE7CQk8ZyBpZD0ic2hhcGU0MzktMzgiIHRyYW5zZm9ybT0idHJhbnNsYXRlKDE4Ljk0MjcsLTIyLjYxMzMpIj4mI3hhOwkJCTx0aXRsZSBpZD0idGl0bGUxNTA5NDQiPlNoZWV0LjQzOTwvdGl0bGU+JiN4YTsJCQk8cGF0aCBpZD0icGF0aDE1MDk0NiIgaW5rc2NhcGU6Y29ubmVjdG9yLWN1cnZhdHVyZT0iMCIgc3R5bGU9ImZpbGw6I0YyRjJGMjsiIGQ9Ik0wLjA3LDY1LjkyYzAsMS4yNSwwLjk4LDIuMjMsMi4yMiwyLjIzaDMuOTQgICAgIHYtMy40MUgwdjEuMThIMC4wN3oiLz4mI3hhOwkJPC9nPiYjeGE7CQk8ZyBpZD0ic2hhcGU0NDAtNDAiIHRyYW5zZm9ybT0icm90YXRlKDE4MCwxMi41OTI5NSw0Ni4zOTIzKSI+JiN4YTsJCQk8dGl0bGUgaWQ9InRpdGxlMTUwOTQ5Ij5TaGVldC40NDA8L3RpdGxlPiYjeGE7CQkJPHJlY3QgaWQ9InJlY3QxNTA5NTEiIHg9IjAiIHk9IjUxLjc2IiBzdHlsZT0iZmlsbDojQThBOEE4OyIgd2lkdGg9IjEyLjQ1IiBoZWlnaHQ9IjE2LjM5Ii8+JiN4YTsJCTwvZz4mI3hhOwkJPGcgaWQ9InNoYXBlNDQxLTQyIiB0cmFuc2Zvcm09InRyYW5zbGF0ZSgxNi43MTQyLC00MS4yMjgzKSI+JiN4YTsJCQk8dGl0bGUgaWQ9InRpdGxlMTUwOTU0Ij5TaGVldC40NDE8L3RpdGxlPiYjeGE7CQkJPHBhdGggaWQ9InBhdGgxNTA5NTYiIGlua3NjYXBlOmNvbm5lY3Rvci1jdXJ2YXR1cmU9IjAiIHN0eWxlPSJmaWxsOiM4M0JFRUM7IiBkPSJNMi4yOSw2OC4xNWwyLjIzLTIuMjNIMEwyLjI5LDY4LjE1eiIvPiYjeGE7CQkJPHBhdGggaWQ9InBhdGgxNTA5NTgiIGlua3NjYXBlOmNvbm5lY3Rvci1jdXJ2YXR1cmU9IjAiIHN0eWxlPSJmaWxsOm5vbmU7IiBkPSJNMi4yOSw2OC4xNWwyLjIzLTIuMjNIMCIvPiYjeGE7CQk8L2c+JiN4YTsJCTxnIGlkPSJzaGFwZTQ0Mi00NSIgdHJhbnNmb3JtPSJ0cmFuc2xhdGUoMTIuODQ3LC0yMi42MTMzKSI+JiN4YTsJCQk8dGl0bGUgaWQ9InRpdGxlMTUwOTYxIj5TaGVldC40NDI8L3RpdGxlPiYjeGE7CQkJPHBhdGggaWQ9InBhdGgxNTA5NjMiIGlua3NjYXBlOmNvbm5lY3Rvci1jdXJ2YXR1cmU9IjAiIHN0eWxlPSJmaWxsOiNGMkYyRjI7IiBkPSJNNi4xNiw2NS45MmMwLDEuMjUtMC45OCwyLjIzLTIuMjMsMi4yM0gwICAgICB2LTMuNDFoNi4yM3YxLjE4SDYuMTZ6Ii8+JiN4YTsJCTwvZz4mI3hhOwkJPGcgaWQ9InNoYXBlNDQzLTQ3IiB0cmFuc2Zvcm09InRyYW5zbGF0ZSgxNy44Mjg0LC00Mi4zNDI1KSI+JiN4YTsJCQk8dGl0bGUgaWQ9InRpdGxlMTUwOTY2Ij5TaGVldC40NDM8L3RpdGxlPiYjeGE7CQkJPHBhdGggaWQ9InBhdGgxNTA5NjgiIGlua3NjYXBlOmNvbm5lY3Rvci1jdXJ2YXR1cmU9IjAiIHN0eWxlPSJmaWxsOiNFNUU1RTU7IiBkPSJNMi4yOSw2Ny4wNGwtMS4xMSwxLjExTDAsNjcuMDRIMi4yOXoiLz4mI3hhOwkJPC9nPiYjeGE7CQk8ZyBpZD0ic2hhcGU0NDQtNDkiIHRyYW5zZm9ybT0icm90YXRlKDE4MCwxMi41OTI5NSw1NC42MDgpIj4mI3hhOwkJCTx0aXRsZSBpZD0idGl0bGUxNTA5NzEiPlNoZWV0LjQ0NDwvdGl0bGU+JiN4YTsJCQk8cmVjdCBpZD0icmVjdDE1MDk3MyIgeD0iMCIgeT0iNjYuNDUiIHN0eWxlPSJmaWxsOiM4M0JFRUM7IiB3aWR0aD0iMTIuNDUiIGhlaWdodD0iMS43Ii8+JiN4YTsJCTwvZz4mI3hhOwkJPGcgaWQ9InNoYXBlNDQ1LTUxIiB0cmFuc2Zvcm09InJvdGF0ZSgtMjYuNTY1MSwtNzkuOTY4OTI0LDUuNTY2MjkxNikiPiYjeGE7CQkJPHRpdGxlIGlkPSJ0aXRsZTE1MDk3NiI+U2hlZXQuNDQ1PC90aXRsZT4mI3hhOwkJCSYjeGE7CQkJCTxyZWN0IGlkPSJyZWN0MTUwOTc4IiB4PSIwIiB5PSI2Ni45MSIgdHJhbnNmb3JtPSJtYXRyaXgoLTEgMi45NDA5NjBlLTA2IC0yLjk0MDk2MGUtMDYgLTEgMi41NTY0IDEzNS4wNTU4KSIgc3R5bGU9ImZpbGw6I0YyRjJGMjsiIHdpZHRoPSIyLjU2IiBoZWlnaHQ9IjEuMjUiLz4mI3hhOwkJPC9nPiYjeGE7CQk8ZyBpZD0ic2hhcGU0NDYtNTMiIHRyYW5zZm9ybT0icm90YXRlKC02My40MzQ5LC0yNS4wMzM1OTksMzIuMDk0NTA1KSI+JiN4YTsJCQk8dGl0bGUgaWQ9InRpdGxlMTUwOTgxIj5TaGVldC40NDY8L3RpdGxlPiYjeGE7CQkJJiN4YTsJCQkJPHJlY3QgaWQ9InJlY3QxNTA5ODMiIHg9IjAiIHk9IjY1LjU5IiB0cmFuc2Zvcm09Im1hdHJpeCgtMSAyLjEwMjc0N2UtMDYgLTIuMTAyNzQ3ZS0wNiAtMSAxLjI0NTMgMTMzLjc0NDkpIiBzdHlsZT0iZmlsbDojRjJGMkYyOyIgd2lkdGg9IjEuMjUiIGhlaWdodD0iMi41NiIvPiYjeGE7CQk8L2c+JiN4YTsJCTxnIGlkPSJzaGFwZTQ0Ny01NSIgdHJhbnNmb3JtPSJ0cmFuc2xhdGUoMjEuODY4NCwtMjcuMDQ1KSI+JiN4YTsJCQk8dGl0bGUgaWQ9InRpdGxlMTUwOTg2Ij5TaGVldC40NDc8L3RpdGxlPiYjeGE7CQkJPHBhdGggaWQ9InBhdGgxNTA5ODgiIGlua3NjYXBlOmNvbm5lY3Rvci1jdXJ2YXR1cmU9IjAiIHN0eWxlPSJmaWxsOiNCQjkxNjc7IiBkPSJNMS45LDY4LjE1Yy0wLjU5LDAtMS4yNC0wLjMzLTEuNTEtMC45MiAgICAgQzAsNjYuMzgsMC4zMyw2NS40LDEuMTgsNjQuOTRsMi4yMy0xLjEyYzAuODUtMC4zOSwxLjgzLTAuMDYsMi4yOSwwLjc5YzAuNCwwLjg1LDAuMDcsMS44NC0wLjc4LDIuM2wtMi4yMywxLjExICAgICBDMi40Myw2OC4xNSwyLjE2LDY4LjE1LDEuOSw2OC4xNXoiLz4mI3hhOwkJPC9nPiYjeGE7CQk8ZyBpZD0ic2hhcGU0NDgtNTciIHRyYW5zZm9ybT0idHJhbnNsYXRlKDMuNzM2MTEsLTMxLjA2ODcpIj4mI3hhOwkJCTx0aXRsZSBpZD0idGl0bGUxNTA5OTEiPlNoZWV0LjQ0ODwvdGl0bGU+JiN4YTsJCQk8cGF0aCBpZD0icGF0aDE1MDk5MyIgaW5rc2NhcGU6Y29ubmVjdG9yLWN1cnZhdHVyZT0iMCIgc3R5bGU9ImZpbGw6I0E4QThBODsiIGQ9Ik02Ljc1LDY4LjE1SDEuN2MtMC45MSwwLTEuNy0wLjc5LTEuNy0xLjcgICAgIGMwLTAuOTIsMC43OS0xLjcxLDEuNy0xLjcxaDUuMTJjMC45MSwwLDEuNywwLjc5LDEuNywxLjcxQzguNTIsNjcuMzYsNy43Myw2OC4xNSw2Ljc1LDY4LjE1eiIvPiYjeGE7CQk8L2c+JiN4YTsJCTxnIGlkPSJzaGFwZTQ0OS01OSIgdHJhbnNmb3JtPSJ0cmFuc2xhdGUoMi4zNTk2NSwtMzAuODA2NSkiPiYjeGE7CQkJPHRpdGxlIGlkPSJ0aXRsZTE1MDk5NiI+U2hlZXQuNDQ5PC90aXRsZT4mI3hhOwkJCTxwYXRoIGlkPSJwYXRoMTUwOTk4IiBpbmtzY2FwZTpjb25uZWN0b3ItY3VydmF0dXJlPSIwIiBzdHlsZT0iZmlsbDojRjJGMkYyOyIgZD0iTTMuMDgsNjguMTVIMS45N0MwLjg1LDY4LjE1LDAsNjcuMjMsMCw2Ni4xOCAgICAgYzAtMS4xMSwwLjkyLTEuOTYsMS45Ny0xLjk2aDEuMTFjMS4xMSwwLDEuOTcsMC45MiwxLjk3LDEuOTZDNS4wNSw2Ny4zLDQuMTksNjguMTUsMy4wOCw2OC4xNXoiLz4mI3hhOwkJPC9nPiYjeGE7CQk8ZyBpZD0iZ3JvdXA0NTAtNjEiIHRyYW5zZm9ybT0idHJhbnNsYXRlKDAsLTMzLjI5NzIpIj4mI3hhOwkJCTx0aXRsZSBpZD0idGl0bGUxNTEwMDEiPlNoZWV0LjQ1MDwvdGl0bGU+JiN4YTsJCQk8ZyBpZD0ic2hhcGU0NTEtNjIiIHRyYW5zZm9ybT0idHJhbnNsYXRlKDkuMTc2NCkiPiYjeGE7CQkJCTx0aXRsZSBpZD0idGl0bGUxNTEwMDMiPlNoZWV0LjQ1MTwvdGl0bGU+JiN4YTsJCQkJPHBhdGggaWQ9InBhdGgxNTEwMDUiIGlua3NjYXBlOmNvbm5lY3Rvci1jdXJ2YXR1cmU9IjAiIHN0eWxlPSJmaWxsOiMxRjFGMUY7IiBkPSJNMy4zNCw2OC4xNWMwLjMzLDAsMC41OS0wLjI2LDAuNTktMC41OXYtMC41OSAgICAgIEgwdjEuMTFoMy4zNFY2OC4xNXoiLz4mI3hhOwkJCTwvZz4mI3hhOwkJCTxnIGlkPSJzaGFwZTQ1Mi02NCIgdHJhbnNmb3JtPSJ0cmFuc2xhdGUoMC4zMjc3MjkpIj4mI3hhOwkJCQk8dGl0bGUgaWQ9InRpdGxlMTUxMDA4Ij5TaGVldC40NTI8L3RpdGxlPiYjeGE7CQkJCTxwYXRoIGlkPSJwYXRoMTUxMDEwIiBpbmtzY2FwZTpjb25uZWN0b3ItY3VydmF0dXJlPSIwIiBzdHlsZT0iZmlsbDojMUYxRjFGOyIgZD0iTTAsNjEuNzNsMS41Nyw2LjIyYzAsMC4xMywwLjEzLDAuMiwwLjI3LDAuMiAgICAgIGg4LjE5YzAuMiwwLDAuMzMtMC4yLDAuMjYtMC4zM0w4LjcyLDYxLjZjMC0wLjE0LTAuMTMtMC4yLTAuMjYtMC4ySDAuMzNDMC4xMyw2MS4zMywwLDYxLjUzLDAsNjEuNzN6Ii8+JiN4YTsJCQk8L2c+JiN4YTsJCQk8ZyBpZD0ic2hhcGU0NTMtNjYiPiYjeGE7CQkJCTx0aXRsZSBpZD0idGl0bGUxNTEwMTMiPlNoZWV0LjQ1MzwvdGl0bGU+JiN4YTsJCQkJPHBhdGggaWQ9InBhdGgxNTEwMTUiIGlua3NjYXBlOmNvbm5lY3Rvci1jdXJ2YXR1cmU9IjAiIHN0eWxlPSJmaWxsOiMzODM4Mzg7IiBkPSJNMC4wNyw2MS43M2wxLjU3LDYuMjIgICAgICBjMCwwLjEzLDAuMTMsMC4yLDAuMjYsMC4yaDguMTljMC4yLDAsMC4zMy0wLjIsMC4yNy0wLjMzTDguNzgsNjEuNmMwLTAuMTQtMC4xMy0wLjItMC4yNi0wLjJIMC4zMyAgICAgIEMwLjIsNjEuMzMsMCw2MS41MywwLjA3LDYxLjczeiIvPiYjeGE7CQkJPC9nPiYjeGE7CQk8L2c+JiN4YTsJCTxnIGlkPSJzaGFwZTQ1NC02OCIgdHJhbnNmb3JtPSJ0cmFuc2xhdGUoMS44MzUyOCwtMzEuMDY4NykiPiYjeGE7CQkJPHRpdGxlIGlkPSJ0aXRsZTE1MTAxOSI+U2hlZXQuNDU0PC90aXRsZT4mI3hhOwkJCTxwYXRoIGlkPSJwYXRoMTUxMDIxIiBpbmtzY2FwZTpjb25uZWN0b3ItY3VydmF0dXJlPSIwIiBzdHlsZT0iZmlsbDojQkI5MTY3OyIgZD0iTTIuNDksNjguMTVjLTAuNTksMC0xLjI0LTAuMzMtMS41MS0wLjkyICAgICBsLTAuNTktMS4xMWMtMC4zOS0wLjg1LTAuMDYtMS45LDAuNzItMi4zYzAuODYtMC4zOSwxLjg0LTAuMDYsMi4zLDAuNzlMNCw2NS43M2MwLjM5LDAuODUsMC4wNiwxLjgzLTAuNzksMi4yOSAgICAgQzIuOTUsNjguMDgsMi43NSw2OC4xNSwyLjQ5LDY4LjE1eiIvPiYjeGE7CQk8L2c+JiN4YTsJCTxnIGlkPSJzaGFwZTQ1NS03MCIgdHJhbnNmb3JtPSJ0cmFuc2xhdGUoMTUuMDEsLTQ3LjcxNzMpIj4mI3hhOwkJCTx0aXRsZSBpZD0idGl0bGUxNTEwMjQiPlNoZWV0LjQ1NTwvdGl0bGU+JiN4YTsJCQk8cGF0aCBpZD0icGF0aDE1MTAyNiIgaW5rc2NhcGU6Y29ubmVjdG9yLWN1cnZhdHVyZT0iMCIgc3R5bGU9ImZpbGw6I0NBNTAxMDsiIGQ9Ik0wLjQ2LDY1LjkydjEuNTFjMCwwLjI2LDAuMiwwLjM5LDAuMzksMC4zOSAgICAgaDEuNDRjMC40LDAsMC43My0wLjMyLDAuNzMtMC43MnYtMS44M0gxLjdjMC4xNC0wLjA3LDAuMjctMC4yLDAuNC0wLjI3aDEuMTh2MC43OWMwLjE5LTAuMTMsMC40Ni0wLjI2LDAuNzItMC4yNiAgICAgczAuNTIsMC4wNiwwLjcyLDAuMjZWNjVoMS4xMWMwLjEzLDAuMTQsMC4yNywwLjIsMC40LDAuMjdINC45MnYxLjgzYzAsMC40LDAuMzIsMC43MiwwLjcyLDAuNzJoMS40NGMwLjI2LDAsMC4zOS0wLjE5LDAuMzktMC4zOSAgICAgdi0xLjUxYzAuMDcsMCwwLjIsMC4wNywwLjI2LDAuMDd2MS40NGMwLDAuMzktMC4zMiwwLjcyLTAuNzIsMC43Mkg1LjU3Yy0wLjUyLDAtMC45OC0wLjQ2LTAuOTgtMC45OHYtMC45MiAgICAgYy0wLjItMC4yLTAuNDYtMC4zMy0wLjcyLTAuMzNzLTAuNTMsMC4xMy0wLjcyLDAuMzN2MC45MmMwLDAuNTItMC40NiwwLjk4LTAuOTksMC45OEgwLjcyQzAuMzMsNjguMTUsMCw2Ny44MiwwLDY3LjQzdi0xLjQ0ICAgICBDMC4yNiw2NS45OSwwLjMzLDY1Ljk5LDAuNDYsNjUuOTJ6Ii8+JiN4YTsJCTwvZz4mI3hhOwkJPGcgaWQ9Imdyb3VwNDU2LTcyIiB0cmFuc2Zvcm09InRyYW5zbGF0ZSgxNS40Njg4LC0zMi41MTA3KSI+JiN4YTsJCQk8dGl0bGUgaWQ9InRpdGxlMTUxMDI5Ij5TaGVldC40NTY8L3RpdGxlPiYjeGE7CQkJPGcgaWQ9InNoYXBlNDU3LTczIiB0cmFuc2Zvcm09InRyYW5zbGF0ZSg0LjI2MDQ3LC0zLjIxMTc0KSI+JiN4YTsJCQkJPHRpdGxlIGlkPSJ0aXRsZTE1MTAzMSI+U2hlZXQuNDU3PC90aXRsZT4mI3hhOwkJCQk8cGF0aCBpZD0icGF0aDE1MTAzMyIgaW5rc2NhcGU6Y29ubmVjdG9yLWN1cnZhdHVyZT0iMCIgc3R5bGU9ImZpbGw6I0YyRjJGMjsiIGQ9Ik0wLjEzLDY4LjE1QzAuMDcsNjguMTUsMC4wNyw2OC4xNSwwLjEzLDY4LjE1ICAgICAgQzAsNjguMTUsMCw2OC4wMiwwLDY3Ljk1bDIuNTYtNy42YzAtMC4wNiwwLjEzLTAuMTMsMC4xOS0wLjA2YzAuMDcsMCwwLjEzLDAuMTMsMC4wNywwLjE5bC0yLjU2LDcuNiAgICAgIEMwLjIsNjguMTUsMC4xMyw2OC4xNSwwLjEzLDY4LjE1eiIvPiYjeGE7CQkJPC9nPiYjeGE7CQkJPGcgaWQ9InNoYXBlNDU4LTc1IiB0cmFuc2Zvcm09InRyYW5zbGF0ZSgwLC0zLjIxMTc0KSI+JiN4YTsJCQkJPHRpdGxlIGlkPSJ0aXRsZTE1MTAzNiI+U2hlZXQuNDU4PC90aXRsZT4mI3hhOwkJCQk8cGF0aCBpZD0icGF0aDE1MTAzOCIgaW5rc2NhcGU6Y29ubmVjdG9yLWN1cnZhdHVyZT0iMCIgc3R5bGU9ImZpbGw6I0YyRjJGMjsiIGQ9Ik0yLjY5LDY4LjE1Yy0wLjA3LDAtMC4xMy0wLjA3LTAuMTMtMC4wNyAgICAgIEwwLDYwLjQ4YzAtMC4wNiwwLTAuMTMsMC4wNy0wLjE5YzAuMDYsMCwwLjEzLDAsMC4xOSwwLjA2bDIuNTYsNy42QzIuODIsNjguMDIsMi44Miw2OC4xNSwyLjY5LDY4LjE1TDIuNjksNjguMTV6Ii8+JiN4YTsJCQk8L2c+JiN4YTsJCQk8ZyBpZD0ic2hhcGU0NTktNzciIHRyYW5zZm9ybT0idHJhbnNsYXRlKDIuNDI1MTkpIj4mI3hhOwkJCQk8dGl0bGUgaWQ9InRpdGxlMTUxMDQxIj5TaGVldC40NTk8L3RpdGxlPiYjeGE7CQkJCTxwYXRoIGlkPSJwYXRoMTUxMDQzIiBpbmtzY2FwZTpjb25uZWN0b3ItY3VydmF0dXJlPSIwIiBzdHlsZT0iZmlsbDojRTVFNUU1OyIgZD0iTTIuMjMsNjcuODljMCwwLjEzLTAuMTMsMC4yNi0wLjI2LDAuMjZIMC4yNiAgICAgIEMwLjEzLDY4LjE1LDAsNjguMDIsMCw2Ny44OXYtMy40MWMwLTAuMTMsMC4xMy0wLjI2LDAuMjYtMC4yNmgxLjcxYzAuMTMsMCwwLjI2LDAuMTMsMC4yNiwwLjI2VjY3Ljg5eiIvPiYjeGE7CQkJPC9nPiYjeGE7CQkJPGcgaWQ9Imdyb3VwNDYwLTc5IiB0cmFuc2Zvcm09InRyYW5zbGF0ZSgyLjYzODE1LC0xLjExODQ3KSI+JiN4YTsJCQkJPHRpdGxlIGlkPSJ0aXRsZTE1MTA0NiI+U2hlZXQuNDYwPC90aXRsZT4mI3hhOwkJCQk8ZyBpZD0ic2hhcGU0NjEtODAiIHRyYW5zZm9ybT0icm90YXRlKDE4MCwwLjg1MjA2LDY3LjI5ODUpIj4mI3hhOwkJCQkJPHRpdGxlIGlkPSJ0aXRsZTE1MTA0OCI+U2hlZXQuNDYxPC90aXRsZT4mI3hhOwkJCQkJPHJlY3QgaWQ9InJlY3QxNTEwNTAiIHg9IjAiIHk9IjY3LjM2IiBzdHlsZT0iZmlsbDojRTgxMjI0OyIgd2lkdGg9IjAuNzkiIGhlaWdodD0iMC43OSIvPiYjeGE7CQkJCTwvZz4mI3hhOwkJCQk8ZyBpZD0ic2hhcGU0NjItODIiIHRyYW5zZm9ybT0icm90YXRlKDE4MCwwLjM5MzI3NDUsNjcuMjk4NSkiPiYjeGE7CQkJCQk8dGl0bGUgaWQ9InRpdGxlMTUxMDUzIj5TaGVldC40NjI8L3RpdGxlPiYjeGE7CQkJCQk8cmVjdCBpZD0icmVjdDE1MTA1NSIgeD0iMCIgeT0iNjcuMzYiIHN0eWxlPSJmaWxsOiMxM0ExMEU7IiB3aWR0aD0iMC43OSIgaGVpZ2h0PSIwLjc5Ii8+JiN4YTsJCQkJPC9nPiYjeGE7CQkJCTxnIGlkPSJzaGFwZTQ2My04NCIgdHJhbnNmb3JtPSJyb3RhdGUoMTgwLDAuODUyMDYsNjcuNzU3KSI+JiN4YTsJCQkJCTx0aXRsZSBpZD0idGl0bGUxNTEwNTgiPlNoZWV0LjQ2MzwvdGl0bGU+JiN4YTsJCQkJCTxyZWN0IGlkPSJyZWN0MTUxMDYwIiB4PSIwIiB5PSI2Ny4zNiIgc3R5bGU9ImZpbGw6IzNBOTZERDsiIHdpZHRoPSIwLjc5IiBoZWlnaHQ9IjAuNzkiLz4mI3hhOwkJCQk8L2c+JiN4YTsJCQkJPGcgaWQ9InNoYXBlNDY0LTg2IiB0cmFuc2Zvcm09InJvdGF0ZSgxODAsMC4zOTMyNzQ1LDY3Ljc1NykiPiYjeGE7CQkJCQk8dGl0bGUgaWQ9InRpdGxlMTUxMDYzIj5TaGVldC40NjQ8L3RpdGxlPiYjeGE7CQkJCQk8cmVjdCBpZD0icmVjdDE1MTA2NSIgeD0iMCIgeT0iNjcuMzYiIHN0eWxlPSJmaWxsOiNGRkI5MDA7IiB3aWR0aD0iMC43OSIgaGVpZ2h0PSIwLjc5Ii8+JiN4YTsJCQkJPC9nPiYjeGE7CQkJPC9nPiYjeGE7CQk8L2c+JiN4YTsJPC9nPiYjeGE7PC9nPiYjeGE7PC9zdmc+;fontSize=10;" parent="1" vertex="1">
          <mxGeometry x="655" y="261.5" width="31" height="56" as="geometry"/>
        </mxCell>
        <mxCell id="KyXaF-SN7KRc0o7MAkgT-50" value="" style="shape=image;html=1;verticalAlign=top;verticalLabelPosition=bottom;labelBackgroundColor=#ffffff;imageAspect=0;aspect=fixed;image=https://cdn4.iconfinder.com/data/icons/pokemon-go/512/Pokemon_Go-15-128.png;fontSize=10;" parent="1" vertex="1">
          <mxGeometry x="420.5" y="264" width="35" height="35" as="geometry"/>
        </mxCell>
        <mxCell id="KyXaF-SN7KRc0o7MAkgT-57" style="edgeStyle=orthogonalEdgeStyle;rounded=0;orthogonalLoop=1;jettySize=auto;html=1;exitX=0.25;exitY=0;exitDx=0;exitDy=0;entryX=1;entryY=0.75;entryDx=0;entryDy=0;fontSize=10;" parent="1" source="KyXaF-SN7KRc0o7MAkgT-53" target="j1X4c3lry06MQMG_WzWm-47" edge="1">
          <mxGeometry relative="1" as="geometry"/>
        </mxCell>
        <mxCell id="ci1leKzA5lIn0T6dzKgm-17" style="edgeStyle=orthogonalEdgeStyle;rounded=0;orthogonalLoop=1;jettySize=auto;html=1;exitX=0.5;exitY=0;exitDx=0;exitDy=0;entryX=0.384;entryY=0.91;entryDx=0;entryDy=0;entryPerimeter=0;" parent="1" source="KyXaF-SN7KRc0o7MAkgT-53" target="ci1leKzA5lIn0T6dzKgm-4" edge="1">
          <mxGeometry relative="1" as="geometry"/>
        </mxCell>
        <mxCell id="KyXaF-SN7KRc0o7MAkgT-53" value="&lt;b&gt;Infosys L3 Support Team&lt;/b&gt;" style="text;html=1;strokeColor=none;fillColor=none;align=center;verticalAlign=middle;whiteSpace=wrap;rounded=0;" parent="1" vertex="1">
          <mxGeometry x="678.5" y="276.5" width="130" height="20" as="geometry"/>
        </mxCell>
        <mxCell id="KyXaF-SN7KRc0o7MAkgT-54" value="" style="shape=image;html=1;verticalAlign=top;verticalLabelPosition=bottom;labelBackgroundColor=#ffffff;imageAspect=0;aspect=fixed;image=https://cdn2.iconfinder.com/data/icons/business-persons-flat-1/512/person_4-128.png;fontSize=10;" parent="1" vertex="1">
          <mxGeometry x="678.5" y="312" width="31" height="31" as="geometry"/>
        </mxCell>
        <mxCell id="KyXaF-SN7KRc0o7MAkgT-58" value="&lt;font style=&quot;font-size: 10px&quot; color=&quot;#cc0000&quot;&gt;&lt;b&gt;Exceptions&lt;/b&gt;&lt;/font&gt;" style="text;html=1;strokeColor=none;fillColor=none;align=center;verticalAlign=middle;whiteSpace=wrap;rounded=0;" parent="1" vertex="1">
          <mxGeometry x="578.5" y="336.5" width="90" height="20" as="geometry"/>
        </mxCell>
        <mxCell id="KyXaF-SN7KRc0o7MAkgT-59" style="edgeStyle=orthogonalEdgeStyle;rounded=0;orthogonalLoop=1;jettySize=auto;html=1;entryX=0.25;entryY=0;entryDx=0;entryDy=0;strokeColor=#0066CC;fontSize=10;fontColor=#000000;" parent="1" source="j1X4c3lry06MQMG_WzWm-24" target="j1X4c3lry06MQMG_WzWm-40" edge="1">
          <mxGeometry relative="1" as="geometry"/>
        </mxCell>
        <mxCell id="j1X4c3lry06MQMG_WzWm-24" value="" style="pointerEvents=1;shadow=0;dashed=0;html=1;strokeColor=none;fillColor=#505050;labelPosition=center;verticalLabelPosition=bottom;verticalAlign=top;outlineConnect=0;align=center;shape=mxgraph.office.communications.conference_announcement_service;fontSize=10;" parent="1" vertex="1">
          <mxGeometry x="189" y="220.5" width="24" height="29" as="geometry"/>
        </mxCell>
        <mxCell id="ci1leKzA5lIn0T6dzKgm-1" value="" style="shape=image;html=1;verticalAlign=top;verticalLabelPosition=bottom;labelBackgroundColor=#ffffff;imageAspect=0;aspect=fixed;image=https://cdn4.iconfinder.com/data/icons/creative-process-16/512/Know-128.png" parent="1" vertex="1">
          <mxGeometry x="496.5" y="96" width="39" height="39" as="geometry"/>
        </mxCell>
        <mxCell id="ci1leKzA5lIn0T6dzKgm-2" value="Knowledge Base" style="text;html=1;strokeColor=none;fillColor=none;align=center;verticalAlign=middle;whiteSpace=wrap;rounded=0;" parent="1" vertex="1">
          <mxGeometry x="544" y="103" width="96" height="20" as="geometry"/>
        </mxCell>
        <mxCell id="ci1leKzA5lIn0T6dzKgm-4" value="" style="shape=image;verticalLabelPosition=bottom;labelBackgroundColor=#ffffff;verticalAlign=top;aspect=fixed;imageAspect=0;image=https://cdn0.iconfinder.com/data/icons/scrum-methodology/512/sprint_backlog-512.png;" parent="1" vertex="1">
          <mxGeometry x="718.5" y="79" width="67" height="67" as="geometry"/>
        </mxCell>
        <mxCell id="ci1leKzA5lIn0T6dzKgm-5" value="Product Backlog" style="text;html=1;strokeColor=none;fillColor=none;align=center;verticalAlign=middle;whiteSpace=wrap;rounded=0;" parent="1" vertex="1">
          <mxGeometry x="701" y="53.5" width="93" height="20" as="geometry"/>
        </mxCell>
        <mxCell id="ci1leKzA5lIn0T6dzKgm-12" value="&lt;font style=&quot;font-size: 10px&quot;&gt;Feature enhancements&lt;/font&gt;" style="text;html=1;strokeColor=none;fillColor=none;align=center;verticalAlign=middle;whiteSpace=wrap;rounded=0;rotation=90;" parent="1" vertex="1">
          <mxGeometry x="709.5" y="207" width="113" height="20" as="geometry"/>
        </mxCell>
        <mxCell id="ci1leKzA5lIn0T6dzKgm-13" value="&lt;font style=&quot;font-size: 10px&quot;&gt;Continuous Improvements&lt;/font&gt;" style="text;html=1;strokeColor=none;fillColor=none;align=center;verticalAlign=middle;whiteSpace=wrap;rounded=0;rotation=0;" parent="1" vertex="1">
          <mxGeometry x="651.5" y="170.5" width="83" height="29" as="geometry"/>
        </mxCell>
        <mxCell id="ci1leKzA5lIn0T6dzKgm-25" style="rounded=0;orthogonalLoop=1;jettySize=auto;html=1;exitX=0;exitY=0.5;exitDx=0;exitDy=0;entryX=0.5;entryY=0;entryDx=0;entryDy=0;edgeStyle=orthogonalEdgeStyle;" parent="1" source="ci1leKzA5lIn0T6dzKgm-20" target="j1X4c3lry06MQMG_WzWm-15" edge="1">
          <mxGeometry relative="1" as="geometry"/>
        </mxCell>
        <mxCell id="ci1leKzA5lIn0T6dzKgm-20" value="" style="shape=image;html=1;verticalAlign=top;verticalLabelPosition=bottom;labelBackgroundColor=#ffffff;imageAspect=0;aspect=fixed;image=https://cdn4.iconfinder.com/data/icons/small-n-flat/24/user-128.png" parent="1" vertex="1">
          <mxGeometry x="278" y="63" width="33" height="33" as="geometry"/>
        </mxCell>
        <mxCell id="ci1leKzA5lIn0T6dzKgm-21" value="Issue reported by end user" style="text;html=1;strokeColor=none;fillColor=none;align=center;verticalAlign=middle;whiteSpace=wrap;rounded=0;fontSize=10;" parent="1" vertex="1">
          <mxGeometry x="253.5" y="27.5" width="65" height="25" as="geometry"/>
        </mxCell>
        <mxCell id="8u4Zwq373klS7ByvNsdC-1" value="&lt;font style=&quot;font-size: 10px&quot;&gt;Developer&lt;/font&gt;" style="text;html=1;strokeColor=none;fillColor=none;align=center;verticalAlign=middle;whiteSpace=wrap;rounded=0;" vertex="1" parent="1">
          <mxGeometry x="714" y="392.5" width="80" height="15" as="geometry"/>
        </mxCell>
      </root>
    </mxGraphModel>
  </diagram>
</mxfile>
